<svg width="53" height="51" viewBox="0 0 53 51" fill="none" xmlns="http://www.w3.org/2000/svg">
<path d="M38.2553 1.96298L40.6587 0.0271115C38.7916 -0.18034 38.0245 0.845145 37.7105 1.65682C36.2519 1.04685 34.6641 1.84625 34.6641 1.84625L39.4727 3.60436C39.2301 2.9518 38.8078 2.38242 38.2553 1.96298V1.96298Z" fill="#4A3AFF" fill-opacity="0.5"/>
<path d="M26.5913 8.09164L28.9946 6.15577C27.1276 5.94832 26.3604 6.9738 26.0465 7.78548C24.5879 7.17551 23 7.97491 23 7.97491L27.8086 9.73302C27.566 9.08046 27.1438 8.51108 26.5913 8.09164V8.09164Z" fill="#4A3AFF" fill-opacity="0.5"/>
<path d="M38.2553 17.7952L40.6587 15.8594C38.7916 15.6519 38.0245 16.6774 37.7105 17.4891C36.2519 16.8791 34.6641 17.6785 34.6641 17.6785L39.4727 19.4366C39.2301 18.7841 38.8078 18.2147 38.2553 17.7952V17.7952Z" fill="#4A3AFF" fill-opacity="0.5"/>
</svg>
