<svg width="53" height="51" viewBox="0 0 53 51" fill="none" xmlns="http://www.w3.org/2000/svg">
<path d="M36.1961 27.6827C39.5631 29.3776 41.613 31.616 41.613 34.0711C41.613 39.36 32.1102 43.6475 20.388 43.6475C15.2915 43.6475 10.6159 42.8364 6.95703 41.4855C10.8432 43.4418 16.4844 44.6735 22.7652 44.6735C34.4873 44.6735 43.9902 40.386 43.9902 35.0972C43.9902 32.1077 40.9529 29.4389 36.1961 27.6827Z" fill="#EFF0F6"/>
<path d="M43.6843 31.3156C47.4835 33.228 49.7966 35.7538 49.7966 38.5241C49.7966 44.492 39.0738 49.3299 25.8467 49.3299C20.0959 49.3299 14.82 48.4146 10.6914 46.8904C15.0765 49.0978 21.4419 50.4876 28.529 50.4876C41.7561 50.4876 52.479 45.6497 52.479 39.6819C52.479 36.3086 49.0517 33.2972 43.6843 31.3156Z" fill="#EFF0F6"/>
<path d="M33.3302 29.283C35.7023 30.477 37.1465 32.054 37.1465 33.7837C37.1465 37.5099 30.4515 40.5305 22.1929 40.5305C18.9754 40.5724 15.7747 40.0572 12.7305 39.0074C15.4684 40.3856 19.4427 41.2534 23.8677 41.2534C32.1263 41.2534 38.8213 38.2328 38.8213 34.5066C38.8213 32.4005 36.6814 30.5202 33.3302 29.283Z" fill="#EFF0F6"/>
<path d="M0 28.5989C0 28.5989 0.521262 36.2721 15.4637 36.2721C30.4061 36.2721 34.8672 28.5989 34.8672 28.5989H0Z" fill="#4A3AFF"/>
<path d="M21.209 8.46626C19.0519 6.81585 16.3444 6.06997 13.6534 6.38482C16.0582 6.9687 18.182 8.38691 19.652 10.3905C21.122 12.3942 21.8443 14.8552 21.6922 17.3417C21.5401 19.8283 20.5233 22.1814 18.8203 23.9882C17.1172 25.7949 14.8366 26.9399 12.3789 27.2221C14.7298 27.7937 17.2044 27.5326 19.3867 26.4829C21.569 25.4331 23.3259 23.6587 24.362 21.458C25.3981 19.2572 25.6502 16.7643 25.076 14.3983C24.5018 12.0323 23.1363 9.9376 21.209 8.46626V8.46626Z" fill="#4A3AFF"/>
<path d="M16.3118 5H15.293V29.4232H16.3118V5Z" fill="#4A3AFF"/>
</svg>
