<svg width="275" height="241" viewBox="0 0 275 241" fill="none" xmlns="http://www.w3.org/2000/svg">
<path d="M42.8942 64.1074C41.0398 64.1513 32.8444 60.0856 29.9603 57.4662C28.5668 56.2009 29.3756 52.6274 30.5829 49.2692C32.0142 45.2946 36.047 42.8823 40.2342 43.4473C40.6918 43.5092 41.1187 43.5602 41.4919 43.5952C42.846 43.7235 45.0988 42.6154 47.1138 41.5764C47.3095 41.4745 47.5034 41.3736 47.6936 41.2761C49.3113 40.436 50.6906 39.7285 51.1893 39.8891C52.3494 40.2612 52.002 41.9101 50.2648 43.6626C48.5271 45.4146 45.2714 47.0783 45.2714 47.0783C45.2714 47.0783 51.6902 49.5405 53.1451 52.0306C54.3228 54.0456 52.5346 55.0588 51.8052 55.3734C51.6332 55.4479 51.5197 55.4841 51.5197 55.4841C51.5197 55.4841 51.6584 55.6786 51.7976 55.9861C51.7976 55.9861 51.7976 55.9861 51.7981 55.9877C52.054 56.5565 52.3105 57.51 51.6989 58.3425C51.0879 59.1754 50.398 59.4631 49.9875 59.5629C49.7672 59.6171 49.628 59.6155 49.628 59.6155C49.628 59.6155 49.6516 59.7382 49.622 59.9421C49.565 60.3284 49.3129 61.0052 48.3353 61.6748C47.4399 62.2881 46.5658 62.3297 46.0091 62.2639C45.6381 62.2207 45.4095 62.1308 45.4095 62.1308C45.4095 62.1308 45.3756 62.2338 45.2983 62.3927C45.0413 62.9199 44.3218 64.0729 42.8942 64.1074Z" fill="#FF9F87"/>
<path d="M47.1133 41.5764C47.3089 41.4745 47.5029 41.3736 47.6931 41.2761C48.2011 41.4586 48.88 41.5463 49.6292 41.2213C49.9053 41.1018 50.1903 40.9254 50.4802 40.6777C50.5876 40.584 50.7509 40.5977 50.843 40.7056C50.9367 40.813 50.923 40.9763 50.815 41.0684C49.3316 42.3365 47.9172 41.9792 47.1133 41.5764Z" fill="#FF7E6A"/>
<path d="M48.1657 52.8859C48.1131 52.7648 48.1613 52.6213 48.2797 52.5571C49.528 51.8804 49.2343 50.4369 49.2211 50.3755C49.1916 50.2364 49.2798 50.0994 49.4184 50.0692C49.5571 50.0391 49.6946 50.1257 49.7248 50.2654C49.8672 50.9126 49.7998 52.3193 48.5252 53.0103C48.4002 53.0783 48.2435 53.0317 48.1756 52.9068C48.1723 52.8996 48.1684 52.8925 48.1657 52.8859Z" fill="#FF7E6A"/>
<path d="M46.2481 56.7035C46.1911 56.5731 46.2514 56.4207 46.3818 56.3643C47.4657 55.8941 47.2525 54.5345 47.2504 54.5208C47.2268 54.3805 47.3216 54.2474 47.4624 54.2238C47.6027 54.2002 47.7359 54.295 47.7589 54.4359C47.8608 55.0464 47.7468 56.3342 46.5873 56.8372C46.4563 56.8942 46.3045 56.8339 46.2481 56.7035Z" fill="#FF7E6A"/>
<path d="M43.5097 59.8073C43.5086 59.804 43.5069 59.8013 43.5058 59.798C43.4543 59.6654 43.5201 59.5157 43.6527 59.4642C45.0616 58.9162 45.049 57.9901 45.0479 57.9512C45.0435 57.8098 45.1537 57.6898 45.2945 57.6843C45.4353 57.6783 45.5553 57.7852 45.5625 57.9271C45.5652 57.9808 45.6118 59.2554 43.839 59.9454C43.7097 59.9952 43.5645 59.9339 43.5097 59.8073Z" fill="#FF7E6A"/>
<path d="M40.2637 62.5494C40.2544 62.528 40.2478 62.505 40.2446 62.4809C40.2254 62.3395 40.3246 62.2102 40.466 62.191C41.6535 62.0315 41.8979 60.8599 41.9001 60.8478C41.9275 60.7081 42.0634 60.6171 42.2026 60.6445C42.3423 60.6719 42.4333 60.8078 42.4059 60.9476C42.3007 61.4819 41.774 62.5357 40.5345 62.7023C40.4177 62.7176 40.3087 62.6524 40.2637 62.5494Z" fill="#FF7E6A"/>
<path d="M51.7988 55.9861C50.8683 55.3609 49.8156 54.774 49.8008 54.7657C49.7493 54.7378 49.7114 54.6939 49.6895 54.6435C49.6588 54.5723 49.6594 54.4879 49.701 54.4156C49.7701 54.2901 49.9274 54.2462 50.0507 54.3147C50.1049 54.3454 50.9532 54.8189 51.8065 55.374C51.6344 55.4485 51.5209 55.4847 51.5209 55.4847C51.5209 55.4847 51.6596 55.6787 51.7988 55.9861Z" fill="#FF7E6A"/>
<path d="M49.6203 59.9421C48.8103 59.4221 48.0316 58.9881 48.0196 58.982C47.9681 58.9541 47.9297 58.9086 47.9083 58.8598C47.8776 58.7886 47.8782 58.7042 47.9193 58.6302C47.9889 58.5064 48.1462 58.4625 48.2695 58.5305C48.3232 58.5595 49.1457 59.0176 49.9853 59.5624C49.765 59.6166 49.6258 59.615 49.6258 59.615C49.6258 59.615 49.6499 59.7383 49.6203 59.9421Z" fill="#FF7E6A"/>
<path d="M45.2965 62.3928C44.7561 61.9977 44.3665 61.6738 44.3336 61.6453C44.3018 61.6196 44.2783 61.5867 44.2635 61.5522C44.2257 61.4656 44.2377 61.3593 44.3035 61.282C44.395 61.1729 44.5572 61.1587 44.6668 61.2519C44.6761 61.2606 45.2669 61.7538 46.0072 62.2646C45.6362 62.2213 45.4077 62.1314 45.4077 62.1314C45.4077 62.1314 45.3737 62.2333 45.2965 62.3928Z" fill="#FF7E6A"/>
<path d="M22.4587 39.1958C23.884 40.0375 25.7708 40.968 27.6899 41.8503C28.4494 42.1994 29.2155 42.5402 29.9586 42.8652C33.3233 44.336 36.2447 45.471 36.2447 45.471L30.0129 56.22L24.5367 54.0998L20.3001 52.4607L0 45.0216V26.1101C0 26.1101 17.9136 36.5095 22.4587 39.1958Z" fill="#FF9F87"/>
<path d="M20.3008 52.4607L27.6906 41.8503C28.4501 42.1994 29.2162 42.5403 29.9593 42.8652L24.5368 54.0992L20.3008 52.4607Z" fill="#FF7E6A"/>
<path d="M32.6843 43.5831L27.0081 55.8873C26.8782 56.169 26.5439 56.2923 26.2623 56.1624L23.1354 54.7201C22.8537 54.5902 22.7304 54.2565 22.8603 53.9748L28.5173 41.6618C28.6472 41.3796 28.9815 41.2557 29.2637 41.3861L32.4092 42.8373C32.6914 42.9671 32.8142 43.3014 32.6843 43.5831Z" fill="#7393FF"/>
<path d="M32.0343 51.1713L32.3581 50.4693C32.9889 49.102 32.842 47.5024 31.9734 46.2727L31.5274 45.6414C30.6588 44.4117 29.2 43.7388 27.7007 43.8763L26.9307 43.947C25.4314 44.0845 24.1189 45.0112 23.4887 46.3785L23.1649 47.0805C22.5341 48.4477 22.681 50.0473 23.5496 51.277L23.9956 51.9083C24.8642 53.1381 26.323 53.811 27.8223 53.6734L28.5923 53.6028C30.091 53.4652 31.4035 52.5385 32.0343 51.1713Z" fill="#7393FF"/>
<path d="M27.1638 45.3004L27.7179 45.2495C28.7963 45.1508 29.8463 45.6347 30.471 46.5197L30.7921 46.974C31.4174 47.859 31.5226 49.0098 31.0689 49.9935L30.836 50.4987C30.3822 51.4824 29.438 52.1493 28.3596 52.248L27.8055 52.2989C26.7271 52.3976 25.6771 51.9137 25.0524 51.0287L24.7313 50.5744C24.1065 49.6893 24.0008 48.5386 24.4545 47.5549L24.6874 47.0496C25.1406 46.066 26.0848 45.3991 27.1638 45.3004Z" fill="#5D74D9"/>
<path d="M52.5233 118.116C50.9067 119.026 41.7622 119.285 37.9854 118.328C36.1606 117.865 35.1966 114.33 34.6854 110.798C34.082 106.617 36.5097 102.593 40.4717 101.126C40.9046 100.965 41.3057 100.81 41.6515 100.666C42.9076 100.143 44.3756 98.1064 45.6667 96.2426C45.7917 96.0607 45.9155 95.8804 46.0377 95.7051C47.0713 94.2035 47.9574 92.9311 48.4725 92.8385C49.671 92.622 50.1395 94.2408 49.4288 96.6038C48.718 98.9668 46.6241 101.964 46.6241 101.964C46.6241 101.964 53.4472 101.123 55.9012 102.638C57.8871 103.864 56.7846 105.599 56.2881 106.219C56.1713 106.365 56.088 106.451 56.088 106.451C56.088 106.451 56.3018 106.558 56.5686 106.763C56.5686 106.763 56.5686 106.763 56.5697 106.764C57.0629 107.146 57.737 107.867 57.5885 108.89C57.44 109.912 56.9659 110.491 56.6503 110.771C56.4815 110.922 56.3577 110.987 56.3577 110.987C56.3577 110.987 56.436 111.084 56.5056 111.278C56.6366 111.646 56.7325 112.362 56.1834 113.413C55.6809 114.375 54.929 114.822 54.4062 115.025C54.0583 115.161 53.8144 115.189 53.8144 115.189C53.8144 115.189 53.8325 115.296 53.8391 115.473C53.861 116.059 53.7673 117.415 52.5233 118.116Z" fill="#FF9F87"/>
<path d="M45.668 96.2431C45.7929 96.0611 45.9168 95.8808 46.039 95.7055C46.5733 95.6277 47.2139 95.3866 47.7224 94.7481C47.9098 94.513 48.0786 94.2231 48.2184 93.8686C48.2693 93.7354 48.42 93.6708 48.5515 93.7234C48.6847 93.7743 48.7494 93.925 48.6968 94.0566C47.9833 95.8721 46.5672 96.2206 45.668 96.2431Z" fill="#FF7E6A"/>
<path d="M51.9062 105.733C51.8026 105.651 51.7779 105.501 51.8519 105.389C52.6361 104.205 51.699 103.068 51.6585 103.021C51.567 102.912 51.5801 102.75 51.6886 102.657C51.7971 102.565 51.9588 102.578 52.0514 102.686C52.481 103.191 53.0827 104.464 52.2815 105.674C52.2032 105.793 52.0432 105.825 51.9242 105.746C51.9182 105.742 51.9122 105.738 51.9062 105.733Z" fill="#FF7E6A"/>
<path d="M52.006 110.003C51.8947 109.915 51.8761 109.752 51.9649 109.641C52.7008 108.717 51.8745 107.617 51.8657 107.606C51.7791 107.493 51.8005 107.331 51.9134 107.244C52.0263 107.158 52.1879 107.179 52.2751 107.292C52.6515 107.784 53.1557 108.974 52.3682 109.962C52.2794 110.074 52.1172 110.092 52.006 110.003Z" fill="#FF7E6A"/>
<path d="M51.0465 114.031C51.0438 114.029 51.0416 114.027 51.0389 114.025C50.9309 113.932 50.9188 113.769 51.0115 113.661C51.9979 112.516 51.5523 111.703 51.5326 111.669C51.4625 111.547 51.503 111.389 51.6252 111.318C51.7469 111.246 51.9031 111.284 51.9759 111.406C52.0039 111.452 52.6434 112.556 51.4022 113.997C51.3118 114.103 51.1545 114.117 51.0465 114.031Z" fill="#FF7E6A"/>
<path d="M49.4683 117.976C49.4503 117.962 49.4338 117.945 49.4196 117.925C49.3363 117.809 49.3631 117.648 49.4787 117.565C50.452 116.867 50.1177 115.718 50.1139 115.706C50.0728 115.57 50.1495 115.426 50.2859 115.384C50.4219 115.343 50.566 115.42 50.6076 115.556C50.7654 116.078 50.7956 117.255 49.7796 117.985C49.6832 118.053 49.556 118.047 49.4683 117.976Z" fill="#FF7E6A"/>
<path d="M56.5704 106.764C55.4553 106.65 54.2502 106.626 54.2332 106.625C54.1746 106.625 54.1209 106.604 54.0776 106.569C54.0173 106.521 53.9779 106.446 53.9806 106.363C53.9828 106.219 54.1006 106.107 54.242 106.109C54.3045 106.111 55.2755 106.13 56.2899 106.22C56.1732 106.366 56.0899 106.451 56.0899 106.451C56.0899 106.451 56.3036 106.559 56.5704 106.764Z" fill="#FF7E6A"/>
<path d="M56.5042 111.279C55.5447 111.201 54.6536 111.183 54.6405 111.183C54.5819 111.183 54.5265 111.161 54.4849 111.127C54.4246 111.079 54.3851 111.004 54.3868 110.92C54.3901 110.777 54.5084 110.665 54.6493 110.667C54.7106 110.668 55.6521 110.686 56.6489 110.772C56.4801 110.923 56.3563 110.988 56.3563 110.988C56.3563 110.988 56.4346 111.085 56.5042 111.279Z" fill="#FF7E6A"/>
<path d="M53.8381 115.473C53.1756 115.378 52.6797 115.275 52.6369 115.265C52.5969 115.258 52.5607 115.24 52.5311 115.216C52.4572 115.157 52.4177 115.058 52.4396 114.958C52.4692 114.819 52.6057 114.731 52.7465 114.761C52.7591 114.764 53.5121 114.923 54.4059 115.026C54.0579 115.162 53.814 115.19 53.814 115.19C53.814 115.19 53.8321 115.296 53.8381 115.473Z" fill="#FF7E6A"/>
<path d="M37.8997 104.787L37.4459 117.203L31.6152 117.903L27.1068 118.446L26.9041 118.47L22.8626 118.957L17.7974 119.565L13.6627 120.061L0 121.703V105.759C0 105.759 9.80372 105.604 16.948 105.626C17.5223 105.629 18.0796 105.632 18.6139 105.636C19.8403 105.646 20.9418 105.662 21.8389 105.688L22.1677 105.698C22.3869 105.705 22.5924 105.713 22.7815 105.721C23.1804 105.739 23.6062 105.748 24.0501 105.751C25.4502 105.76 27.0465 105.702 28.6467 105.609C29.4808 105.559 30.3181 105.501 31.1264 105.439C34.7881 105.157 37.8997 104.787 37.8997 104.787Z" fill="#FF9F87"/>
<path d="M26.9038 118.47L22.8623 118.957C21.4731 114.852 21.6841 108.309 21.8387 105.688L22.1675 105.698L24.0498 105.752L26.9038 118.47Z" fill="#FF7E6A"/>
<path d="M18.6152 105.636L17.7987 119.564L13.6641 120.06L16.9493 105.626C17.5236 105.629 18.0809 105.631 18.6152 105.636Z" fill="#FF7E6A"/>
<path d="M17.5825 105.201C17.5825 105.201 15.8015 113.91 16.0755 119.983C16.0755 119.983 17.9935 120.897 19.7745 119.938C19.7745 119.938 20.277 107.745 21.2815 105.461C21.2815 105.461 19.455 104.361 17.5825 105.201Z" fill="#5D74D9"/>
<path d="M22.332 105.201C22.332 105.201 23.0296 113.391 25.5285 118.933C25.5285 118.933 27.6043 119.637 28.771 118.476C28.771 118.476 25.3915 107.516 25.9845 105.201C25.9845 105.201 23.7618 103.729 22.332 105.201Z" fill="#4A3AFF"/>
<path d="M64.8917 185.879C64.1815 187.593 57.1479 193.443 53.5848 195.021C51.8636 195.783 48.9236 193.598 46.3408 191.135C43.2852 188.218 42.7109 183.554 44.9221 179.953C45.1637 179.56 45.3829 179.19 45.566 178.863C46.2312 177.676 46.1293 175.168 45.9945 172.905C45.9808 172.685 45.9666 172.467 45.9545 172.253C45.8405 170.434 45.7523 168.886 46.1008 168.495C46.9102 167.585 48.278 168.57 49.1773 170.867C50.0766 173.165 50.2804 176.816 50.2804 176.816C50.2804 176.816 55.1291 171.942 57.9952 171.619C60.3143 171.358 60.5176 173.403 60.5099 174.197C60.5083 174.385 60.4957 174.503 60.4957 174.503C60.4957 174.503 60.7297 174.455 61.0667 174.452C61.0667 174.452 61.0667 174.452 61.0683 174.452C61.6925 174.448 62.6674 174.599 63.182 175.495C63.696 176.391 63.6807 177.139 63.605 177.554C63.5656 177.777 63.508 177.904 63.508 177.904C63.508 177.904 63.6297 177.933 63.8045 178.042C64.1349 178.251 64.6517 178.755 64.8687 179.92C65.0671 180.987 64.752 181.803 64.4665 182.286C64.2769 182.608 64.1021 182.78 64.1021 182.78C64.1021 182.78 64.1821 182.853 64.2966 182.988C64.6742 183.435 65.4375 184.56 64.8917 185.879Z" fill="#FF9F87"/>
<path d="M45.9931 172.905C45.9794 172.685 45.9652 172.466 45.9531 172.253C46.3258 171.863 46.6803 171.277 46.6863 170.461C46.6885 170.16 46.6431 169.828 46.534 169.463C46.4918 169.327 46.5707 169.183 46.7066 169.143C46.8425 169.101 46.9867 169.179 47.0267 169.315C47.5851 171.184 46.6863 172.332 45.9931 172.905Z" fill="#FF7E6A"/>
<path d="M56.762 176.518C56.63 176.517 56.5182 176.415 56.5072 176.281C56.3932 174.865 54.9547 174.549 54.8933 174.537C54.7541 174.508 54.6643 174.372 54.6928 174.233C54.7213 174.094 54.8561 174.003 54.9964 174.032C55.6457 174.163 56.905 174.794 57.0212 176.24C57.0327 176.381 56.927 176.506 56.785 176.517C56.7768 176.518 56.7697 176.518 56.762 176.518Z" fill="#FF7E6A"/>
<path d="M59.4794 179.816C59.337 179.815 59.2224 179.699 59.2235 179.556C59.2323 178.375 57.9028 178.02 57.8891 178.016C57.751 177.981 57.6683 177.84 57.7034 177.702C57.739 177.565 57.8787 177.481 58.0174 177.516C58.6169 177.67 59.7485 178.296 59.7392 179.56C59.7381 179.702 59.6219 179.817 59.4794 179.816Z" fill="#FF7E6A"/>
<path d="M61.206 183.578C61.2027 183.578 61.1994 183.578 61.1961 183.578C61.0536 183.571 60.9435 183.451 60.9501 183.309C61.0191 181.799 60.167 181.435 60.1308 181.42C59.9998 181.367 59.9346 181.218 59.9867 181.087C60.0382 180.955 60.1845 180.889 60.3171 180.939C60.3676 180.958 61.5523 181.431 61.4657 183.332C61.4592 183.47 61.3441 183.579 61.206 183.578Z" fill="#FF7E6A"/>
<path d="M62.402 187.655C62.379 187.655 62.3549 187.651 62.3319 187.644C62.1949 187.604 62.1165 187.461 62.1565 187.325C62.4908 186.175 61.5186 185.477 61.5082 185.47C61.3915 185.388 61.3635 185.227 61.4452 185.111C61.5269 184.994 61.688 184.966 61.8041 185.047C62.2497 185.36 63.001 186.268 62.6513 187.468C62.6185 187.582 62.5143 187.656 62.402 187.655Z" fill="#FF7E6A"/>
<path d="M61.0685 174.452C60.1204 175.05 59.1576 175.776 59.1439 175.786C59.0973 175.822 59.042 175.839 58.9872 175.838C58.9099 175.837 58.8326 175.802 58.7833 175.735C58.6962 175.621 58.7198 175.459 58.8321 175.374C58.882 175.337 59.6585 174.753 60.5117 174.197C60.5101 174.385 60.4975 174.503 60.4975 174.503C60.4975 174.503 60.7315 174.455 61.0685 174.452Z" fill="#FF7E6A"/>
<path d="M63.8023 178.042C62.9989 178.572 62.287 179.109 62.2766 179.117C62.2301 179.153 62.1731 179.17 62.1199 179.169C62.0426 179.169 61.9654 179.134 61.9144 179.066C61.8295 178.952 61.853 178.791 61.9654 178.706C62.0136 178.668 62.7654 178.101 63.6033 177.554C63.5639 177.777 63.5063 177.904 63.5063 177.904C63.5063 177.904 63.628 177.932 63.8023 178.042Z" fill="#FF7E6A"/>
<path d="M64.296 182.988C63.7163 183.322 63.2625 183.547 63.2225 183.566C63.1863 183.584 63.1469 183.593 63.1091 183.593C63.0143 183.592 62.9222 183.538 62.8778 183.446C62.8153 183.319 62.868 183.165 62.9973 183.102C63.0093 183.097 63.6993 182.756 64.4659 182.286C64.2763 182.607 64.1015 182.78 64.1015 182.78C64.1015 182.78 64.1821 182.852 64.296 182.988Z" fill="#FF7E6A"/>
<path d="M33.8427 194.489C35.1891 193.526 36.8036 192.177 38.3867 190.779C39.0131 190.225 39.6351 189.663 40.2329 189.115C42.9395 186.633 45.1589 184.42 45.1589 184.42L52.4676 194.469L48.3127 198.619L45.0997 201.829L21.3664 225.54L10.7188 211.737C10.7188 211.737 29.5469 197.558 33.8427 194.489Z" fill="#FF9F87"/>
<path d="M8.1093 241L47.7818 200.618L37.4761 189.468L0 219.087V241H8.1093Z" fill="#4A3AFF"/>
<path d="M25.0021 220.678C24.9725 220.644 24.9506 220.603 24.9402 220.555C23.8409 215.499 25.1232 209.872 26.3929 206.043C27.7651 201.904 29.4195 198.911 29.436 198.882C29.5094 198.749 29.6766 198.702 29.8086 198.775C29.9407 198.849 29.9884 199.016 29.9149 199.148C29.8497 199.265 23.4189 210.982 25.4756 220.439C25.5079 220.587 25.4142 220.733 25.2663 220.765C25.1654 220.787 25.0657 220.751 25.0021 220.678Z" fill="#4A3AFF"/>
<path d="M38.6427 207.273C38.1161 207.737 37.3127 207.686 36.8486 207.159C36.3844 206.632 36.4354 205.829 36.9626 205.365C37.4892 204.901 38.2926 204.952 38.7567 205.479C39.2209 206.006 39.1699 206.809 38.6427 207.273Z" fill="#4A3AFF"/>
<path d="M42.713 203.292C42.1864 203.756 41.383 203.705 40.9189 203.178C40.4547 202.651 40.5057 201.848 41.0329 201.384C41.5595 200.92 42.3629 200.971 42.827 201.498C43.2906 202.024 43.2397 202.828 42.713 203.292Z" fill="#4A3AFF"/>
</svg>
