<svg width="321" height="243" viewBox="0 0 321 243" fill="none" xmlns="http://www.w3.org/2000/svg">
<path opacity="0.4" d="M264.778 35.4351C264.778 35.4351 239.888 2.4581 198.562 0.136134C157.235 -2.18583 134.223 25.6815 117.317 46.5822C100.411 67.4829 49.2227 55.4066 18.2271 87.4552C-12.7684 119.503 2.25993 138.081 15.8786 156.66C29.4972 175.238 42.6473 178.025 42.6473 193.352C42.6473 208.68 50.1614 229.115 79.7473 233.76C109.333 238.405 139.858 210.072 160.991 220.755C182.124 231.438 217.581 239.798 239.301 233.76C261.02 227.722 254.446 205.428 277.927 197.996C301.409 190.564 323.95 167.342 320.663 142.261C317.376 117.179 298.591 112.535 290.607 88.3829C282.623 64.2317 271.353 45.653 264.778 35.4351Z" fill="#E0E0E0"/>
<path d="M293.073 238.986C293.073 240.333 249.865 241.424 196.566 241.424C143.266 241.424 100.059 240.333 100.059 238.986C100.059 237.639 143.266 236.547 196.566 236.547C249.865 236.547 293.073 237.639 293.073 238.986Z" fill="#263238"/>
<path d="M216.716 57.6996H126.033C123.212 57.6996 120.926 55.438 120.926 52.648V17.5902C120.926 14.8002 123.213 12.5386 126.033 12.5386H216.716C219.537 12.5386 221.824 14.8002 221.824 17.5902V52.648C221.824 55.438 219.537 57.6996 216.716 57.6996Z" fill="#4A3AFF"/>
<path opacity="0.1" d="M216.716 57.6996H126.033C123.212 57.6996 120.926 55.438 120.926 52.648V17.5902C120.926 14.8002 123.213 12.5386 126.033 12.5386H216.716C219.537 12.5386 221.824 14.8002 221.824 17.5902V52.648C221.824 55.438 219.537 57.6996 216.716 57.6996Z" fill="black"/>
<path d="M120.926 49.7578V66.0658L130.125 55.5944" fill="#4A3AFF"/>
<path opacity="0.1" d="M120.926 49.7578V66.0658L130.125 55.5944" fill="black"/>
<path d="M216.716 118.817H126.033C123.212 118.817 120.926 116.556 120.926 113.766V78.7079C120.926 75.9179 123.213 73.6562 126.033 73.6562H216.716C219.537 73.6562 221.824 75.9179 221.824 78.7079V113.766C221.824 116.556 219.537 118.817 216.716 118.817Z" fill="#4A3AFF"/>
<path opacity="0.1" d="M216.716 118.817H126.033C123.212 118.817 120.926 116.556 120.926 113.766V78.7079C120.926 75.9179 123.213 73.6562 126.033 73.6562H216.716C219.537 73.6562 221.824 75.9179 221.824 78.7079V113.766C221.824 116.556 219.537 118.817 216.716 118.817Z" fill="black"/>
<path d="M120.926 110.875V127.184L130.125 116.712" fill="#4A3AFF"/>
<path opacity="0.1" d="M120.926 110.875V127.184L130.125 116.712" fill="black"/>
<path d="M50.8627 163.147C50.794 163.173 50.4844 158.362 50.5006 158.056C50.6828 154.517 53.1371 147.785 57.0142 146.761C59.8075 146.023 62.3806 148.034 62.8223 150.742C63.2731 153.508 61.4527 156.452 59.6021 158.364C57.4288 160.608 50.8673 163.144 50.8627 163.147Z" fill="#263238"/>
<path d="M45.7971 144.705C45.7253 144.721 46.1561 139.919 46.2186 139.619C46.9405 136.147 50.3984 129.86 54.3875 129.43C57.261 129.12 59.4976 131.492 59.5192 134.235C59.5408 137.036 57.2911 139.674 55.1688 141.286C52.6767 143.178 45.8025 144.703 45.7971 144.705Z" fill="#263238"/>
<path d="M44.5237 122.935C44.4519 122.951 44.8827 118.149 44.9452 117.849C45.667 114.378 49.125 108.091 53.1133 107.66C55.9868 107.35 58.2234 109.723 58.245 112.465C58.2674 115.267 56.0169 117.904 53.8946 119.517C51.4032 121.41 44.5291 122.934 44.5237 122.935Z" fill="#263238"/>
<path d="M42.3049 102.46C42.2331 102.476 42.6639 97.6736 42.7265 97.3735C43.4483 93.9024 46.9062 87.6153 50.8953 87.1847C53.7688 86.8739 56.0054 89.247 56.0263 91.9897C56.0486 94.7912 53.7982 97.4285 51.6758 99.0411C49.1837 100.934 42.3096 102.458 42.3049 102.46Z" fill="#263238"/>
<path d="M35.6996 86.006C35.6348 86.0403 34.7678 81.2964 34.7477 80.9902C34.5169 77.4542 36.1736 70.4868 39.9056 69.0299C42.5946 67.9801 45.3848 69.6843 46.1375 72.3239C46.9064 75.02 45.4403 78.1513 43.8245 80.261C41.9276 82.7372 35.7042 86.0037 35.6996 86.006Z" fill="#263238"/>
<path d="M48.8466 163.2C48.9192 163.19 46.8108 158.844 46.6456 158.585C44.7371 155.586 39.2665 150.9 35.3793 151.883C32.5784 152.591 31.3277 155.589 32.2811 158.165C33.2554 160.795 36.2988 162.483 38.8589 163.255C41.8644 164.162 48.842 163.201 48.8466 163.2Z" fill="#263238"/>
<path d="M44.7648 142.235C44.8351 142.214 42.0851 138.234 41.8821 138.002C39.5359 135.324 33.4113 131.512 29.7187 133.066C27.0583 134.185 26.2808 137.336 27.6188 139.739C28.9845 142.193 32.2517 143.406 34.8998 143.785C38.0096 144.231 44.7602 142.236 44.7648 142.235Z" fill="#263238"/>
<path d="M43.6008 121.699C43.671 121.678 40.9211 117.698 40.718 117.467C38.3718 114.788 32.2473 110.976 28.5546 112.53C25.8942 113.65 25.1168 116.8 26.4547 119.204C27.8204 121.658 31.0877 122.87 33.7357 123.251C36.8463 123.695 43.5961 121.7 43.6008 121.699Z" fill="#263238"/>
<path d="M41.6008 102.851C41.671 102.83 38.9211 98.8499 38.718 98.6185C36.3718 95.94 30.2473 92.1283 26.5546 93.6822C23.8942 94.8015 23.1168 97.9519 24.4547 100.356C25.8204 102.81 29.0877 104.022 31.7357 104.402C34.8455 104.848 41.5961 102.852 41.6008 102.851Z" fill="#263238"/>
<path d="M35.7413 86.6276C35.8093 86.5994 32.6339 82.942 32.4062 82.7335C29.7766 80.326 23.2661 77.2031 19.7688 79.1479C17.2489 80.549 16.8258 83.7658 18.4223 86.0084C20.0529 88.299 23.4344 89.1489 26.1087 89.239C29.2493 89.3459 35.7367 86.6299 35.7413 86.6276Z" fill="#263238"/>
<path d="M27.3167 73.2142C27.3901 73.2196 26.276 68.5268 26.171 68.2381C24.9589 64.9037 20.6355 59.1641 16.6256 59.2962C13.7367 59.3916 11.8629 62.0534 12.2343 64.7716C12.6141 67.5479 15.219 69.8431 17.5505 71.1419C20.2881 72.6675 27.3113 73.2134 27.3167 73.2142Z" fill="#263238"/>
<path d="M57.6185 187.887C57.6185 187.887 56.7893 186.02 55.4884 182.74C54.1868 179.455 52.3941 174.741 50.5057 168.994C49.5546 166.123 48.5865 162.993 47.6508 159.656C47.1675 157.979 46.7359 156.292 46.2634 154.479C46.0673 153.595 45.8689 152.703 45.6682 151.802C45.4497 150.912 45.3339 149.946 45.1602 149.009C44.5457 145.233 44.1797 141.342 43.9828 137.378C43.7844 133.419 43.708 129.404 43.6138 125.4C43.5219 121.395 43.4077 117.399 43.085 113.485C42.7684 109.571 42.2543 105.739 41.422 102.1C40.5898 98.4647 39.3221 95.0463 37.9764 91.9035C36.63 88.7417 35.0844 85.8684 33.5928 83.2586C32.1059 80.6427 30.5811 78.3383 29.2146 76.308C27.8304 74.2884 26.5612 72.5689 25.4919 71.1716C23.3464 68.3808 22 66.8789 22 66.8789C22 66.8789 23.3788 68.351 25.5876 71.0975C26.6885 72.4734 27.9971 74.167 29.4285 76.1614C30.8429 78.1665 32.4224 80.4442 33.9734 83.0387C35.5291 85.6271 37.1465 88.4821 38.5748 91.6417C40.0107 94.8073 41.3587 98.209 42.289 101.892C43.2154 105.567 43.8215 109.439 44.2276 113.382C44.6398 117.328 44.8429 121.345 45.0228 125.352C45.205 129.359 45.3694 133.358 45.652 137.275C45.9315 141.188 46.3831 145.033 47.0555 148.663C47.2447 149.57 47.3636 150.457 47.6052 151.358C47.8253 152.254 48.0437 153.143 48.2591 154.022C48.7378 155.7 49.2211 157.435 49.7299 159.06C50.7281 162.342 51.7541 165.421 52.7585 168.242C54.7527 173.891 56.6303 178.522 57.9875 181.738C59.3494 184.961 60.1901 186.747 60.1901 186.747C60.519 187.445 60.2133 188.274 59.5076 188.599C58.802 188.924 57.9644 188.622 57.6355 187.924C57.6324 187.917 57.6285 187.91 57.6254 187.903L57.6185 187.887Z" fill="#263238"/>
<path d="M75.8004 158.29C75.7271 158.296 76.8133 153.596 76.916 153.308C78.108 149.966 82.3967 144.202 86.4074 144.31C89.2971 144.389 91.187 147.039 90.8319 149.76C90.469 152.538 87.8773 154.849 85.5543 156.161C82.8259 157.702 75.8058 158.29 75.8004 158.29Z" fill="#263238"/>
<path d="M76.2444 139.185C76.171 139.181 77.9645 134.698 78.1104 134.428C79.8004 131.303 84.922 126.247 88.8702 126.955C91.7144 127.465 93.1766 130.369 92.4092 133.005C91.6248 135.697 88.7096 137.593 86.2113 138.542C83.2784 139.656 76.249 139.186 76.2444 139.185Z" fill="#263238"/>
<path d="M81.2717 117.954C81.1984 117.949 82.9918 113.466 83.1377 113.196C84.8277 110.072 89.9494 105.015 93.8975 105.724C96.7417 106.234 98.2039 109.138 97.4365 111.774C96.6522 114.466 93.737 116.362 91.2387 117.311C88.3057 118.425 81.2771 117.955 81.2717 117.954Z" fill="#263238"/>
<path d="M85.0334 97.7008C84.9601 97.6963 86.7535 93.2134 86.8994 92.9432C88.5894 89.8187 93.7111 84.7625 97.6593 85.471C100.503 85.9811 101.966 88.8849 101.198 91.5206C100.414 94.2129 97.4987 96.1088 95.0004 97.0579C92.0674 98.1719 85.0388 97.7008 85.0334 97.7008Z" fill="#263238"/>
<path d="M83.4402 80.0705C83.3684 80.085 83.9004 75.2929 83.9699 74.9944C84.7651 71.5393 88.3558 65.3255 92.3526 64.9774C95.2323 64.7269 97.4179 67.1451 97.3808 69.8878C97.343 72.6892 95.0377 75.2792 92.8814 76.8475C90.3499 78.6877 83.4449 80.069 83.4402 80.0705Z" fill="#263238"/>
<path d="M73.8472 157.775C73.9198 157.785 73.1478 153.025 73.0636 152.73C72.0955 149.319 68.1975 143.289 64.1883 143.137C61.2994 143.028 59.2388 145.551 59.4126 148.289C59.5909 151.085 62.0236 153.558 64.2555 155.019C66.8758 156.733 73.8418 157.774 73.8472 157.775Z" fill="#263238"/>
<path d="M75.9695 136.528C76.0428 136.528 74.5505 131.939 74.4223 131.659C72.9431 128.432 68.1666 123.055 64.1798 123.507C61.3078 123.832 59.6564 126.634 60.2486 129.314C60.8531 132.052 63.637 134.132 66.0666 135.241C68.9193 136.543 75.9648 136.528 75.9695 136.528Z" fill="#263238"/>
<path d="M80.7546 116.511C80.828 116.511 79.3356 111.922 79.2075 111.643C77.7283 108.415 72.9517 103.039 68.9649 103.49C66.093 103.815 64.4416 106.618 65.0337 109.298C65.6382 112.035 68.4214 114.115 70.8518 115.224C73.7044 116.526 80.7492 116.511 80.7546 116.511Z" fill="#263238"/>
<path d="M84.2507 97.8786C84.3241 97.8786 82.8317 93.2896 82.7036 93.0102C81.2244 89.7827 76.4478 84.4065 72.461 84.8577C69.5891 85.183 67.9377 87.9853 68.5298 90.6653C69.1343 93.4027 71.9175 95.4826 74.3479 96.592C77.2005 97.8939 84.2461 97.8786 84.2507 97.8786Z" fill="#263238"/>
<path d="M83.2958 80.6766C83.3684 80.6682 81.3758 76.2694 81.2175 76.0059C79.3885 72.9586 74.0438 68.1337 70.1319 69.0156C67.3132 69.6509 65.9838 72.6158 66.8693 75.2149C67.7741 77.8698 70.7719 79.6351 73.3103 80.4735C76.2896 81.4577 83.2904 80.6774 83.2958 80.6766Z" fill="#263238"/>
<path d="M79.0745 65.4483C79.1432 65.4742 79.4242 60.6616 79.4065 60.3554C79.2034 56.8171 76.7074 50.0994 72.8249 49.0991C70.0278 48.3783 67.4662 50.4033 67.0408 53.1139C66.607 55.8825 68.4444 58.8153 70.3065 60.7166C72.4929 62.9484 79.0699 65.4467 79.0745 65.4483Z" fill="#263238"/>
<path d="M75.1667 183.909C75.1667 183.909 74.908 181.886 74.6039 178.376C74.2997 174.861 73.936 169.837 73.7778 163.796C73.6913 160.776 73.6627 157.503 73.7245 154.04C73.743 152.297 73.8141 150.559 73.8828 148.687C73.9484 147.785 74.0148 146.874 74.082 145.953C74.1283 145.039 74.295 144.079 74.3977 143.132C74.8941 139.34 75.6615 135.506 76.6111 131.651C77.5592 127.799 78.64 123.928 79.7008 120.062C80.7639 116.197 81.8031 112.333 82.6183 108.49C83.4398 104.649 84.0481 100.831 84.296 97.1076C84.543 93.3884 84.3098 89.7546 83.9238 86.3629C83.5417 82.9529 82.8862 79.7635 82.2053 76.8422C81.5321 73.9163 80.7322 71.2782 80.005 68.9471C79.2584 66.6213 78.535 64.6162 77.912 62.9761C76.6567 59.6974 75.7982 57.8794 75.7982 57.8794C75.7982 57.8794 76.6968 59.6783 78.0247 62.9326C78.6848 64.5612 79.453 66.5526 80.252 68.8669C81.0318 71.1866 81.8918 73.8147 82.6322 76.7384C83.3803 79.6574 84.1099 82.8498 84.5708 86.2805C85.0379 89.7187 85.3521 93.3593 85.1853 97.1519C85.0178 100.936 84.4851 104.818 83.7416 108.713C83.0028 112.611 82.0424 116.52 81.0634 120.412C80.0868 124.305 79.094 128.186 78.2394 132.021C77.3832 135.851 76.7107 139.664 76.3124 143.333C76.2336 144.256 76.0923 145.14 76.0653 146.071C76.0182 146.993 75.9727 147.906 75.9264 148.809C75.9032 150.553 75.8677 152.352 75.8885 154.053C75.9024 157.48 76.002 160.72 76.1533 163.708C76.4413 169.686 76.9107 174.653 77.2874 178.119C77.6665 181.592 77.9599 183.54 77.9599 183.54C78.0741 184.301 77.543 185.01 76.774 185.124C76.0043 185.237 75.2879 184.711 75.1728 183.95C75.1713 183.943 75.1705 183.935 75.1698 183.927L75.1667 183.909Z" fill="#263238"/>
<path d="M84.1094 234.399H51.4238L42.2305 181.45H93.302L84.1094 234.399Z" fill="#263238"/>
<path d="M141.692 239.404C180.95 239.404 212.774 207.929 212.774 169.103C212.774 130.276 180.95 98.8008 141.692 98.8008C102.434 98.8008 70.6094 130.276 70.6094 169.103C70.6094 207.929 102.434 239.404 141.692 239.404Z" fill="#4A3AFF" stroke="#263238" stroke-width="0.9124" stroke-miterlimit="10" stroke-linecap="round" stroke-linejoin="round"/>
<path d="M238.357 109.981C238.357 109.981 236.066 114.24 235.701 114.842C235.337 115.443 234.121 118.689 234.485 119.41C234.85 120.132 235.215 120.613 235.944 120.733C236.673 120.853 237.281 122.175 238.497 122.415C239.713 122.656 240.807 122.656 240.807 122.656C240.807 122.656 241.414 123.137 242.144 122.896C242.873 122.656 243.481 122.296 243.967 120.251C244.454 118.207 244.211 117.126 244.211 117.126L243.993 112.999L238.357 109.981Z" fill="#FF9F87" stroke="#263238" stroke-width="0.9124" stroke-miterlimit="10" stroke-linecap="round" stroke-linejoin="round"/>
<path d="M251.742 224.704C251.742 224.704 248.445 230.016 248.445 231.299C248.445 232.582 252.986 234.934 254.932 235.79C256.878 236.645 260.337 237.286 263.148 237.714C265.959 238.141 271.796 239.21 270.067 237.072C268.338 234.934 257.959 229.16 257.527 228.519C257.094 227.878 255.734 226.793 255.734 226.793L251.742 224.704Z" fill="#4A3AFF" stroke="#263238" stroke-width="0.9124" stroke-miterlimit="10" stroke-linecap="round" stroke-linejoin="round"/>
<path d="M256.91 233.064L258.067 234.779C259.321 236.641 261.001 238.192 262.991 239.254C266.077 240.901 270.839 242.788 274.99 241.656C281.8 239.798 264.659 229.58 264.659 229.58C264.659 229.58 258.554 233.76 256.91 233.064Z" fill="#4A3AFF" stroke="#263238" stroke-width="0.9124" stroke-miterlimit="10" stroke-linecap="round" stroke-linejoin="round"/>
<path d="M258.867 233.876C258.867 233.876 261.267 238.029 266.865 239.611C272.464 241.193 274.064 240.798 275.264 239.215" fill="#4A3AFF"/>
<path d="M258.867 233.876C258.867 233.876 261.267 238.029 266.865 239.611C272.464 241.193 274.064 240.798 275.264 239.215" stroke="#263238" stroke-width="0.6843" stroke-miterlimit="10" stroke-linecap="round" stroke-linejoin="round"/>
<path d="M248.871 230.316C248.871 230.316 255.054 234.694 258.061 234.779Z" fill="#4A3AFF"/>
<path d="M248.871 230.316C248.871 230.316 255.054 234.694 258.061 234.779" stroke="#263238" stroke-width="0.6843" stroke-miterlimit="10" stroke-linecap="round" stroke-linejoin="round"/>
<path d="M235.454 111.447C235.454 111.447 240.933 120.431 242.107 122.522C243.281 124.612 258.074 141.333 263.945 155.731C269.815 170.13 275.45 183.134 275.216 187.315C274.981 191.495 255.726 226.794 255.726 226.794L251.734 224.704C251.734 224.704 257.839 191.495 257.135 188.012C256.43 184.529 234.827 149.926 234.827 149.926C234.827 149.926 224.731 142.959 220.504 134.831" fill="#263238"/>
<path d="M236.238 133.901C236.238 133.901 233.185 140.403 233.185 141.332C233.185 142.262 250.326 192.191 255.257 203.57C260.188 214.949 263.476 225.864 263.476 225.864C263.476 225.864 265.354 228.187 263.945 230.509C262.536 232.831 256.901 234.457 255.727 232.367C254.552 230.277 243.047 219.362 238.116 208.447C233.185 197.532 226.141 178.954 222.149 171.987C218.157 165.02 213.226 156.427 208.06 144.351C202.894 132.276 197.57 119.193 197.57 119.193C197.57 119.193 207.432 120.354 218.234 116.871C229.035 113.388 233.654 106.725 233.654 106.725C233.654 106.725 236.401 113.673 237.111 115.018" fill="#263238"/>
<path d="M197.574 119.193C197.574 119.193 198.066 124.596 200.228 126.306C202.389 128.017 208.876 129.514 217.74 127.803C226.605 126.093 236.335 118.608 237.2 116.042C238.064 113.476 233.658 106.729 233.658 106.729C233.658 106.729 228.551 113.903 214.282 116.256C200.012 118.609 197.574 119.193 197.574 119.193Z" fill="black" stroke="#263238" stroke-width="0.9124" stroke-miterlimit="10" stroke-linecap="round" stroke-linejoin="round"/>
<path d="M254.56 66.7863C251.038 64.4636 223.565 43.3307 220.982 42.4023C218.399 41.473 213.233 42.4023 213.233 42.4023C213.233 42.4023 197.317 44.3218 193.978 45.6535C193.666 45.7779 186.49 49.8553 186.229 50.066C183.646 52.1559 172.346 57.3045 169.293 63.8069C165.839 71.1637 196.168 115.478 197.577 119.193C198.986 122.909 206.393 123.814 213.204 122.885C220.013 121.956 225.989 120.587 230.92 115.013C231.764 114.059 232.558 112.621 233.155 111.387C233.858 109.934 234.041 108.295 233.662 106.729C231.9 99.4785 227.407 78.561 224.447 64.7216C229.388 67.8736 239.66 74.279 245.637 76.5391C253.621 79.5582 259.726 77.4676 259.726 74.9135C259.725 72.3602 258.082 69.109 254.56 66.7863Z" fill="white"/>
<mask id="mask0_66_3456" style="mask-type:luminance" maskUnits="userSpaceOnUse" x="169" y="41" width="91" height="83">
<path d="M254.56 66.7863C251.038 64.4636 223.565 43.3307 220.982 42.4023C218.399 41.473 213.233 42.4023 213.233 42.4023C213.233 42.4023 197.317 44.3218 193.978 45.6535C193.666 45.7779 186.49 49.8553 186.229 50.066C183.646 52.1559 172.346 57.3045 169.293 63.8069C165.839 71.1637 196.168 115.478 197.577 119.193C198.986 122.909 206.393 123.814 213.204 122.885C220.013 121.956 225.989 120.587 230.92 115.013C231.764 114.059 232.558 112.621 233.155 111.387C233.858 109.934 234.041 108.295 233.662 106.729C231.9 99.4785 227.407 78.561 224.447 64.7216C229.388 67.8736 239.66 74.279 245.637 76.5391C253.621 79.5582 259.726 77.4676 259.726 74.9135C259.725 72.3602 258.082 69.109 254.56 66.7863Z" fill="white"/>
</mask>
<g mask="url(#mask0_66_3456)">
<path opacity="0.5" d="M224.129 59.2271C224.129 59.2271 227.886 60.6205 230.704 60.6205C233.521 60.6205 231.878 61.7819 230.704 62.2461C229.529 62.7104 238.218 61.5498 237.982 62.9433C237.748 64.3367 231.642 67.1237 231.642 67.1237C231.642 67.1237 236.808 70.3749 245.026 71.3042C253.245 72.2334 248.079 77.1102 248.079 77.1102C248.079 77.1102 234.864 72.3105 224.448 64.7246L224.129 59.2271Z" fill="white"/>
</g>
<mask id="mask1_66_3456" style="mask-type:luminance" maskUnits="userSpaceOnUse" x="169" y="41" width="91" height="83">
<path d="M254.56 66.7863C251.038 64.4636 223.565 43.3307 220.982 42.4023C218.399 41.473 213.233 42.4023 213.233 42.4023C213.233 42.4023 197.317 44.3218 193.978 45.6535C193.666 45.7779 186.49 49.8553 186.229 50.066C183.646 52.1559 172.346 57.3045 169.293 63.8069C165.839 71.1637 196.168 115.478 197.577 119.193C198.986 122.909 206.393 123.814 213.204 122.885C220.013 121.956 225.989 120.587 230.92 115.013C231.764 114.059 232.558 112.621 233.155 111.387C233.858 109.934 234.041 108.295 233.662 106.729C231.9 99.4785 227.407 78.561 224.447 64.7216C229.388 67.8736 239.66 74.279 245.637 76.5391C253.621 79.5582 259.726 77.4676 259.726 74.9135C259.725 72.3602 258.082 69.109 254.56 66.7863Z" fill="white"/>
</mask>
<g mask="url(#mask1_66_3456)">
<g opacity="0.5">
<path d="M182.563 75.019C182.563 75.019 180.685 78.0381 181.624 78.2703C182.563 78.5024 192.19 74.5548 188.903 77.806C185.616 81.0572 181.624 81.0572 183.268 81.9865C184.912 82.9157 189.139 82.9157 187.73 83.8442C186.321 84.7734 189.139 88.9531 196.183 97.3132C203.227 105.673 206.279 111.479 214.028 115.427C221.777 119.375 226.943 119.375 222.246 120.536C217.55 121.697 212.619 122.394 212.385 124.484C212.385 124.484 212.619 126.11 209.801 127.271C206.983 128.433 205.34 128.2 203.227 127.271C201.114 126.342 200.409 126.342 199.939 125.181C199.47 124.02 197.575 119.194 197.575 119.194L194.211 112.072L193.13 110.55L192.19 109.854L175.754 81.9865L182.563 75.019Z" fill="white"/>
</g>
</g>
<path d="M254.56 66.7863C251.038 64.4636 223.565 43.3307 220.982 42.4023C218.399 41.473 213.233 42.4023 213.233 42.4023C213.233 42.4023 197.317 44.3218 193.978 45.6535C193.666 45.7779 186.49 49.8553 186.229 50.066C183.646 52.1559 172.346 57.3045 169.293 63.8069C165.839 71.1637 196.168 115.478 197.577 119.193C198.986 122.909 206.393 123.814 213.204 122.885C220.013 121.956 225.989 120.587 230.92 115.013C231.764 114.059 232.558 112.621 233.155 111.387C233.858 109.934 234.041 108.295 233.662 106.729C231.9 99.4785 227.407 78.561 224.447 64.7216C229.388 67.8736 239.66 74.279 245.637 76.5391C253.621 79.5582 259.726 77.4676 259.726 74.9135C259.725 72.3602 258.082 69.109 254.56 66.7863Z" stroke="#263238" stroke-width="0.9124" stroke-miterlimit="10" stroke-linecap="round" stroke-linejoin="round"/>
<path d="M173.059 59.0562C173.059 59.0562 170.238 62.1264 169.142 63.5206C163.263 70.9989 144.537 94.9484 144.327 96.8772C144.127 98.712 145.011 100.112 149.59 101.853C154.169 103.595 184.789 73.2376 184.789 73.2376" fill="white"/>
<mask id="mask2_66_3456" style="mask-type:luminance" maskUnits="userSpaceOnUse" x="144" y="59" width="41" height="43">
<path d="M173.059 59.0562C173.059 59.0562 170.238 62.1264 169.142 63.5206C163.263 70.9989 144.537 94.9484 144.327 96.8772C144.127 98.712 145.011 100.112 149.59 101.853C154.169 103.595 184.789 73.2376 184.789 73.2376" fill="white"/>
</mask>
<g mask="url(#mask2_66_3456)">
<g opacity="0.5">
<path opacity="0.8" d="M174.808 58.5303L152.266 89.6496C152.266 89.6496 154.614 92.2044 157.431 94.7585C160.249 97.3134 165.18 98.939 161.423 98.7068C157.666 98.4747 150.621 95.6878 150.621 95.6878C150.621 95.6878 148.508 97.3134 151.091 98.939C153.674 100.565 154.143 99.4032 161.658 103.119C169.172 106.835 181.194 109.237 181.194 109.237L180.22 111.188L148.274 103.119C148.274 103.119 143.627 100.821 144.306 96.9774C144.986 93.1337 155.753 80.9581 155.753 80.9581L171.184 60.9477C171.184 60.9477 172.633 58.8288 174.808 58.5303Z" fill="white"/>
</g>
</g>
<path d="M173.059 59.0562C173.059 59.0562 170.238 62.1264 169.142 63.5206C163.263 70.9989 144.537 94.9484 144.327 96.8772C144.127 98.712 145.011 100.112 149.59 101.853C154.169 103.595 184.789 73.2376 184.789 73.2376" stroke="#263238" stroke-width="0.9124" stroke-miterlimit="10" stroke-linecap="round" stroke-linejoin="round"/>
<path d="M235.04 57.6665L224.445 64.7233C225.958 64.5095 233.31 61.9432 233.31 61.9432" stroke="#263238" stroke-width="0.6843" stroke-miterlimit="10" stroke-linecap="round" stroke-linejoin="round"/>
<path d="M234.609 61.7293L236.988 61.3018" stroke="#263238" stroke-width="0.6843" stroke-miterlimit="10" stroke-linecap="round" stroke-linejoin="round"/>
<path d="M156.127 89.4865C156.127 89.4865 153.961 89.3131 151.367 90.3821" stroke="#263238" stroke-width="0.9124" stroke-miterlimit="10" stroke-linecap="round" stroke-linejoin="round"/>
<path d="M179.215 79.0003C179.215 79.0003 185.163 77.1998 186.741 75.9995" stroke="#263238" stroke-width="0.6843" stroke-miterlimit="10" stroke-linecap="round" stroke-linejoin="round"/>
<path d="M188.195 75.3985C188.195 75.3985 189.167 74.5586 189.53 74.5586" stroke="#263238" stroke-width="0.6843" stroke-miterlimit="10" stroke-linecap="round" stroke-linejoin="round"/>
<path d="M224.446 64.7224L223.48 54.9077" stroke="#263238" stroke-width="0.9124" stroke-miterlimit="10" stroke-linecap="round" stroke-linejoin="round"/>
<path d="M144.316 96.9761C144.316 96.9761 142.946 102.148 151.713 104.292C155.872 105.309 183.412 111.955 183.412 111.955C183.412 111.955 185.877 106.731 184.469 106.731C183.06 106.731 157.701 90.0103 157.701 90.0103" fill="black"/>
<path d="M144.316 96.9761C144.316 96.9761 142.946 102.148 151.713 104.292C155.872 105.309 183.412 111.955 183.412 111.955C183.412 111.955 185.877 106.731 184.469 106.731C183.06 106.731 157.701 90.0103 157.701 90.0103" stroke="#263238" stroke-width="0.9124" stroke-miterlimit="10" stroke-linecap="round" stroke-linejoin="round"/>
<path d="M184.466 106.73C184.466 106.73 193.507 110.91 194.211 112.071C194.915 113.232 196.559 119.27 196.559 121.128C196.559 122.987 196.325 122.986 195.15 122.986C193.976 122.986 190.924 118.573 190.219 117.645C189.515 116.716 187.871 116.716 185.758 115.323C183.645 113.93 183.41 111.956 183.41 111.956L184.466 106.73Z" fill="#FF9F87" stroke="#263238" stroke-width="0.9124" stroke-miterlimit="10" stroke-linecap="round" stroke-linejoin="round"/>
<path d="M180.605 111.057L182.013 106.743" stroke="#263238" stroke-width="0.9124" stroke-miterlimit="10" stroke-linecap="round" stroke-linejoin="round"/>
<path opacity="0.4" d="M201.75 65.3647C201.75 65.3647 187.268 57.2199 182.073 57.9537C176.878 58.6874 172.426 59.422 172.426 59.422L182.068 52.7485C186.832 55.0102 193.795 60.0175 201.75 65.3647Z" fill="#4A3AFF"/>
<path d="M249.157 74.2179C249.157 74.2179 246.809 82.1137 245.87 86.7584C244.93 91.4031 238.355 109.982 238.355 109.982L243.991 113.465C243.991 113.465 256.436 87.9198 258.783 82.3459C261.132 76.7727 260.427 72.5923 258.079 70.2695" fill="black"/>
<path d="M249.157 74.2179C249.157 74.2179 246.809 82.1137 245.87 86.7584C244.93 91.4031 238.355 109.982 238.355 109.982L243.991 113.465C243.991 113.465 256.436 87.9198 258.783 82.3459C261.132 76.7727 260.427 72.5923 258.079 70.2695" stroke="white" stroke-width="0.9124" stroke-miterlimit="10" stroke-linecap="round" stroke-linejoin="round"/>
<path d="M239.426 107.299C239.848 107.299 245.194 110.221 245.194 110.221Z" fill="#263238"/>
<path d="M202.392 65.3641C201.095 65.1503 194.176 60.6599 189.42 57.0246C184.663 53.3893 182.069 52.7479 182.069 52.7479L178.825 54.8859C178.825 54.8859 177.961 52.5334 179.258 50.1816C180.555 47.8291 185.095 45.4774 189.636 43.7663C194.176 42.0559 199.365 40.5586 202.609 40.5586C205.852 40.5586 206.717 41.8414 206.717 43.5525C206.717 45.2628 206.717 50.6092 205.636 54.6721C204.555 58.735 202.392 65.3641 202.392 65.3641Z" fill="white"/>
<mask id="mask3_66_3456" style="mask-type:luminance" maskUnits="userSpaceOnUse" x="178" y="40" width="29" height="26">
<path d="M202.396 65.3641C201.099 65.1503 194.18 60.6599 189.424 57.0246C184.667 53.3893 182.073 52.7479 182.073 52.7479L178.829 54.8859C178.829 54.8859 177.965 52.5334 179.262 50.1816C180.559 47.8291 185.099 45.4774 189.64 43.7663C194.18 42.0559 199.369 40.5586 202.612 40.5586C205.856 40.5586 206.72 41.8414 206.72 43.5525C206.72 45.2628 206.72 50.6092 205.64 54.6721C204.559 58.735 202.396 65.3641 202.396 65.3641Z" fill="white"/>
</mask>
<g mask="url(#mask3_66_3456)">
<g opacity="0.5">
<path d="M200.359 43.0654C200.359 43.0654 198.363 48.9891 196.366 50.7666C194.37 52.5434 191.374 54.1232 191.374 54.1232C191.374 54.1232 190.176 49.9763 187.181 49.9763C184.187 49.9763 179.594 51.9509 179.594 51.9509C179.594 51.9509 179.594 50.3711 183.387 48.3965C187.181 46.422 187.181 46.422 187.181 46.422L195.966 43.0654H200.359Z" fill="white"/>
</g>
</g>
<path d="M202.392 65.3641C201.095 65.1503 194.176 60.6599 189.42 57.0246C184.663 53.3893 182.069 52.7479 182.069 52.7479L178.825 54.8859C178.825 54.8859 177.961 52.5334 179.258 50.1816C180.555 47.8291 185.095 45.4774 189.636 43.7663C194.176 42.0559 199.365 40.5586 202.609 40.5586C205.852 40.5586 206.717 41.8414 206.717 43.5525C206.717 45.2628 206.717 50.6092 205.636 54.6721C204.555 58.735 202.392 65.3641 202.392 65.3641Z" stroke="#263238" stroke-width="0.9124" stroke-miterlimit="10" stroke-linecap="round" stroke-linejoin="round"/>
<path d="M183.176 38.2214C183.176 38.2214 186.932 41.9368 188.341 47.975C189.75 54.0132 198.584 61.1127 200.697 61.1127C202.81 61.1127 202.665 50.762 201.961 47.7429C201.257 44.7238 198.439 36.5958 198.439 36.5958C198.439 36.5958 187.167 31.2548 183.176 38.2214Z" fill="white"/>
<mask id="mask4_66_3456" style="mask-type:luminance" maskUnits="userSpaceOnUse" x="183" y="34" width="20" height="28">
<path d="M183.168 38.2214C183.168 38.2214 186.925 41.9368 188.334 47.975C189.743 54.0132 198.576 61.1127 200.689 61.1127C202.802 61.1127 202.657 50.762 201.953 47.7429C201.249 44.7238 198.431 36.5958 198.431 36.5958C198.431 36.5958 187.159 31.2548 183.168 38.2214Z" fill="white"/>
</mask>
<g mask="url(#mask4_66_3456)">
<g opacity="0.5">
<path d="M200.343 43.0654C200.343 43.0654 198.347 48.9891 196.351 50.7666C194.354 52.5434 191.359 54.1232 191.359 54.1232C191.359 54.1232 190.16 49.9763 187.166 49.9763C184.171 49.9763 179.578 51.9509 179.578 51.9509C179.578 51.9509 179.578 50.3711 183.372 48.3965C187.166 46.422 187.166 46.422 187.166 46.422L195.951 43.0654H200.343Z" fill="white"/>
</g>
</g>
<path d="M183.176 38.2214C183.176 38.2214 186.932 41.9368 188.341 47.975C189.75 54.0132 198.584 61.1127 200.697 61.1127C202.81 61.1127 202.665 50.762 201.961 47.7429C201.257 44.7238 198.439 36.5958 198.439 36.5958C198.439 36.5958 187.167 31.2548 183.176 38.2214Z" stroke="#263238" stroke-width="0.9124" stroke-miterlimit="10" stroke-linecap="round" stroke-linejoin="round"/>
<path d="M175.733 27.0264C175.733 27.0264 178.283 34.0869 181.852 39.8869C185.422 45.6868 192.305 48.9647 196.13 47.4521C199.954 45.9395 202.55 41.0673 201.53 33.5028C201.306 31.8406 199.842 31.1618 199.368 29.6537C197.682 24.2997 195.961 19.1602 195.364 17.1926C194.599 14.6713 188.48 12.1493 182.106 13.9146C175.733 15.6792 174.713 20.9745 175.733 27.0264Z" fill="#FF9F87"/>
<mask id="mask5_66_3456" style="mask-type:luminance" maskUnits="userSpaceOnUse" x="175" y="13" width="27" height="35">
<path d="M175.725 27.0264C175.725 27.0264 178.275 34.0869 181.844 39.8869C185.414 45.6868 192.297 48.9647 196.122 47.4521C199.947 45.9395 202.542 41.0673 201.522 33.5028C201.298 31.8406 199.835 31.1618 199.36 29.6537C197.675 24.2997 195.953 19.1602 195.356 17.1926C194.591 14.6713 188.472 12.1493 182.098 13.9146C175.725 15.6792 174.705 20.9745 175.725 27.0264Z" fill="white"/>
</mask>
<g mask="url(#mask5_66_3456)">
<path opacity="0.5" d="M196.885 22.4008C196.885 22.4008 194.559 24.1081 189.367 23.1209C184.176 22.1336 180.582 22.3306 180.782 23.7134C180.982 25.0954 181.381 26.8729 181.381 26.8729C181.381 26.8729 175.134 21.5434 180.793 20.101C184.872 19.0618 187.227 20.6485 188.226 20.8455C189.223 21.0432 196.885 22.4008 196.885 22.4008Z" fill="#FF9F87"/>
</g>
<path d="M175.733 27.0264C175.733 27.0264 178.283 34.0869 181.852 39.8869C185.422 45.6868 192.305 48.9647 196.13 47.4521C199.954 45.9395 202.55 41.0673 201.53 33.5028C201.306 31.8406 199.842 31.1618 199.368 29.6537C197.682 24.2997 195.961 19.1602 195.364 17.1926C194.599 14.6713 188.48 12.1493 182.106 13.9146C175.733 15.6792 174.713 20.9745 175.733 27.0264Z" stroke="#263238" stroke-width="0.9124" stroke-miterlimit="10" stroke-linecap="round" stroke-linejoin="round"/>
<path d="M180.32 35.3486C180.32 35.3486 176.24 33.5832 175.985 35.3486C175.731 37.1139 177.515 38.3745 179.3 39.1312C181.085 39.8879 182.104 38.8792 182.104 38.8792" fill="#FF9F87"/>
<path d="M180.32 35.3486C180.32 35.3486 176.24 33.5832 175.985 35.3486C175.731 37.1139 177.515 38.3745 179.3 39.1312C181.085 39.8879 182.104 38.8792 182.104 38.8792" stroke="#263238" stroke-width="0.9124" stroke-miterlimit="10" stroke-linecap="round" stroke-linejoin="round"/>
<path d="M196.986 25.3772C196.986 25.3772 192.445 24.3083 194.391 30.2953C194.777 31.4826 197.418 32.8616 197.418 32.8616C197.418 32.8616 197.202 34.7857 196.121 34.9995" fill="#FF9F87"/>
<path d="M196.986 25.3772C196.986 25.3772 192.445 24.3083 194.391 30.2953C194.777 31.4826 197.418 32.8616 197.418 32.8616C197.418 32.8616 197.202 34.7857 196.121 34.9995" stroke="#263238" stroke-width="0.9124" stroke-miterlimit="10" stroke-linecap="round" stroke-linejoin="round"/>
<path d="M193.751 39.2761C193.751 39.2761 190.508 39.9175 189.211 38.4209Z" fill="#FF9F87"/>
<path d="M193.751 39.2761C193.751 39.2761 190.508 39.9175 189.211 38.4209" stroke="#263238" stroke-width="0.9124" stroke-miterlimit="10" stroke-linecap="round" stroke-linejoin="round"/>
<path d="M188.99 29.2262C188.99 29.2262 186.611 28.371 185.314 29.44C184.017 30.509 183.801 31.3649 183.801 31.3649" fill="#FF9F87"/>
<path d="M188.99 29.2262C188.99 29.2262 186.611 28.371 185.314 29.44C184.017 30.509 183.801 31.3649 183.801 31.3649" stroke="#263238" stroke-width="0.9124" stroke-miterlimit="10" stroke-linecap="round" stroke-linejoin="round"/>
<path d="M188.929 32.8873C189.235 33.5929 189.171 34.2969 188.786 34.4595C188.402 34.6221 187.843 34.1823 187.537 33.476C187.231 32.7705 187.295 32.0665 187.68 31.9039C188.064 31.7412 188.624 32.1818 188.929 32.8873Z" fill="#263238"/>
<path d="M196.698 29.1505C197.004 29.8561 196.94 30.56 196.556 30.7227C196.171 30.8853 195.612 30.4455 195.306 29.7392C195.001 29.0337 195.065 28.3297 195.449 28.1671C195.834 28.0044 196.393 28.445 196.698 29.1505Z" fill="#263238"/>
<path d="M179.184 36.3638C179.184 36.3638 181.767 34.506 181.297 32.8804C180.827 31.2548 179.888 31.2548 180.827 30.3256C181.767 29.3964 182.471 28.9321 182.236 27.5386C182.002 26.1451 178.244 23.8232 179.418 22.4297C180.593 21.0362 180.122 19.4106 189.75 21.7326C199.378 24.0553 205.483 20.3391 202.665 16.8558C199.847 13.3724 197.499 12.9074 197.499 12.9074C197.499 12.9074 202.9 10.5855 198.439 8.26276C193.977 5.9408 183.881 5.9408 178.246 10.3526C172.611 14.7644 173.784 18.4806 173.784 18.4806C173.784 18.4806 170.731 18.9448 170.497 23.5895C170.261 28.2357 179.184 36.3638 179.184 36.3638Z" fill="#263238"/>
</svg>
