<svg width="321" height="242" viewBox="0 0 321 242" fill="none" xmlns="http://www.w3.org/2000/svg">
<path d="M198.563 37.3144H133.432C132.428 37.3144 131.613 36.5089 131.613 35.5148C131.613 34.5214 132.428 33.7158 133.432 33.7158H198.563C199.568 33.7158 200.382 34.5214 200.382 35.5148C200.382 36.5081 199.568 37.3144 198.563 37.3144Z" fill="white"/>
<path d="M198.563 45.5906H133.432C132.428 45.5906 131.613 44.785 131.613 43.7909C131.613 42.7975 132.428 41.9912 133.432 41.9912H198.563C199.568 41.9912 200.382 42.7968 200.382 43.7909C200.382 44.785 199.568 45.5906 198.563 45.5906Z" fill="white"/>
<path d="M137.069 29.0365C140.686 29.0365 143.618 26.1365 143.618 22.5592C143.618 18.982 140.686 16.082 137.069 16.082C133.452 16.082 130.52 18.982 130.52 22.5592C130.52 26.1365 133.452 29.0365 137.069 29.0365Z" fill="white"/>
<path d="M198.563 98.4311H133.432C132.428 98.4311 131.613 97.6256 131.613 96.6314C131.613 95.6381 132.428 94.8325 133.432 94.8325H198.563C199.568 94.8325 200.382 95.6381 200.382 96.6314C200.382 97.6256 199.568 98.4311 198.563 98.4311Z" fill="white"/>
<path d="M198.563 106.708H133.432C132.428 106.708 131.613 105.902 131.613 104.909C131.613 103.916 132.428 103.109 133.432 103.109H198.563C199.568 103.109 200.382 103.915 200.382 104.909C200.382 105.902 199.568 106.708 198.563 106.708Z" fill="white"/>
<path d="M137.069 90.1541C140.686 90.1541 143.618 87.2542 143.618 83.6769C143.618 80.0997 140.686 77.1997 137.069 77.1997C133.452 77.1997 130.52 80.0997 130.52 83.6769C130.52 87.2542 133.452 90.1541 137.069 90.1541Z" fill="white"/>
</svg>
