<svg width="275" height="241" viewBox="0 0 275 241" fill="none" xmlns="http://www.w3.org/2000/svg">
<path d="M220.143 70.4559C221.997 70.4943 230.181 66.4051 233.057 63.7769C234.448 62.5077 233.628 58.9364 232.411 55.5816C230.968 51.6113 226.928 49.2105 222.742 49.7881C222.285 49.8511 221.858 49.9037 221.485 49.9394C220.132 50.072 217.876 48.9699 215.857 47.937C215.661 47.8356 215.467 47.7353 215.276 47.6383C213.656 46.8026 212.274 46.0995 211.776 46.2617C210.617 46.6371 210.969 48.2855 212.712 50.0325C214.454 51.7795 217.715 53.4334 217.715 53.4334C217.715 53.4334 211.303 55.9142 209.856 58.4087C208.685 60.427 210.475 61.4353 211.206 61.7477C211.378 61.8216 211.492 61.8573 211.492 61.8573C211.492 61.8573 211.354 62.0523 211.216 62.3598C211.216 62.3598 211.216 62.3598 211.215 62.3614C210.961 62.9313 210.707 63.8849 211.321 64.7162C211.935 65.5475 212.625 65.8335 213.036 65.9311C213.256 65.9848 213.396 65.9826 213.396 65.9826C213.396 65.9826 213.373 66.1054 213.403 66.3092C213.461 66.6955 213.715 67.3712 214.694 68.0381C215.592 68.6486 216.466 68.6881 217.022 68.6207C217.393 68.5763 217.621 68.4853 217.621 68.4853C217.621 68.4853 217.656 68.5883 217.733 68.7467C217.992 69.2744 218.715 70.4252 220.143 70.4559Z" fill="#FF9F87"/>
<path d="M215.856 47.9374C215.66 47.8361 215.466 47.7358 215.275 47.6388C214.768 47.8229 214.089 47.9122 213.339 47.5895C213.063 47.4705 212.777 47.2952 212.487 47.0486C212.379 46.9554 212.216 46.9697 212.124 47.0776C212.031 47.1856 212.045 47.3483 212.153 47.4399C213.64 48.7035 215.054 48.3419 215.856 47.9374Z" fill="#FF7E6A"/>
<path d="M214.837 59.2494C214.889 59.1277 214.841 58.9847 214.722 58.9206C213.472 58.2476 213.761 56.8031 213.774 56.7417C213.804 56.6025 213.715 56.4655 213.576 56.4359C213.437 56.4063 213.3 56.4935 213.27 56.6332C213.129 57.281 213.201 58.6871 214.478 59.3749C214.604 59.4423 214.76 59.3957 214.827 59.2702C214.831 59.2636 214.834 59.2565 214.837 59.2494Z" fill="#FF7E6A"/>
<path d="M216.768 63.0613C216.824 62.9303 216.763 62.7791 216.633 62.7226C215.548 62.2557 215.757 60.8956 215.759 60.8819C215.782 60.7411 215.687 60.609 215.547 60.586C215.406 60.5629 215.273 60.6577 215.251 60.7986C215.151 61.4096 215.268 62.6969 216.43 63.1966C216.559 63.2525 216.711 63.1922 216.768 63.0613Z" fill="#FF7E6A"/>
<path d="M219.516 66.1575C219.517 66.1542 219.519 66.1515 219.52 66.1482C219.571 66.0151 219.505 65.866 219.372 65.815C217.962 65.2709 217.972 64.3453 217.973 64.3058C217.977 64.1644 217.866 64.045 217.725 64.0395C217.584 64.034 217.465 64.1414 217.458 64.2828C217.455 64.3365 217.412 65.6117 219.187 66.2962C219.317 66.346 219.462 66.2841 219.516 66.1575Z" fill="#FF7E6A"/>
<path d="M222.769 68.8897C222.779 68.8684 222.785 68.8453 222.788 68.8212C222.807 68.6798 222.707 68.5505 222.566 68.5319C221.378 68.3757 221.13 67.2046 221.128 67.1931C221.1 67.0534 220.964 66.963 220.824 66.9909C220.685 67.0189 220.594 67.1548 220.622 67.2945C220.729 67.8283 221.259 68.881 222.499 69.0437C222.616 69.0591 222.725 68.9933 222.769 68.8897Z" fill="#FF7E6A"/>
<path d="M211.217 62.3597C212.146 61.7323 213.197 61.1421 213.212 61.1333C213.263 61.1048 213.301 61.061 213.322 61.0105C213.353 60.9393 213.352 60.8549 213.31 60.7826C213.241 60.6571 213.083 60.6138 212.96 60.6823C212.906 60.713 212.059 61.1892 211.207 61.7471C211.379 61.821 211.493 61.8567 211.493 61.8567C211.493 61.8567 211.355 62.0523 211.217 62.3597Z" fill="#FF7E6A"/>
<path d="M213.402 66.3098C214.21 65.7876 214.988 65.3513 215 65.3448C215.051 65.3163 215.09 65.2708 215.11 65.222C215.141 65.1508 215.14 65.0664 215.099 64.9924C215.029 64.8686 214.872 64.8253 214.748 64.8938C214.695 64.9228 213.873 65.3837 213.035 65.9306C213.255 65.9843 213.395 65.9821 213.395 65.9821C213.395 65.9821 213.372 66.1059 213.402 66.3098Z" fill="#FF7E6A"/>
<path d="M217.734 68.7477C218.273 68.351 218.662 68.026 218.695 67.9975C218.727 67.9718 218.751 67.9389 218.766 67.9044C218.803 67.8178 218.791 67.7115 218.724 67.6342C218.633 67.5257 218.47 67.512 218.361 67.6052C218.352 67.6139 217.763 68.1093 217.023 68.6223C217.394 68.5779 217.622 68.4869 217.622 68.4869C217.622 68.4869 217.656 68.5888 217.734 68.7477Z" fill="#FF7E6A"/>
<path d="M274.349 28.1455V45.8021L255.566 53.4839L250.502 55.5537L242.703 58.7431L238.471 60.3953L233.002 62.5309L226.738 51.7994C226.738 51.7994 229.656 50.6568 233.017 49.1761C233.759 48.8484 234.524 48.5059 235.283 48.1541C237.199 47.2663 239.045 46.2624 240.505 45.4853C241.986 44.6973 244.344 43.4714 247.145 42.0274C247.877 41.6504 248.639 41.2586 249.422 40.8564C259.888 35.4778 274.349 28.1455 274.349 28.1455Z" fill="#FF9F87"/>
<path d="M255.565 53.484L250.501 55.5537L247.145 42.028C247.876 41.651 248.638 41.2592 249.421 40.8569L255.565 53.484Z" fill="#FF7E6A"/>
<path d="M247.145 38.7629L253.547 56.3614L274.347 47.966V26L247.145 38.7629Z" fill="#21191B"/>
<path d="M207.485 124.93C209.042 125.939 218.152 126.769 221.981 126.049C223.831 125.701 225.015 122.234 225.746 118.74C226.609 114.605 224.437 110.437 220.575 108.725C220.152 108.539 219.762 108.358 219.426 108.192C218.206 107.592 216.867 105.468 215.695 103.528C215.582 103.339 215.469 103.151 215.359 102.968C214.421 101.405 213.616 100.08 213.108 99.9552C211.925 99.6642 211.356 101.251 211.918 103.654C212.48 106.056 214.383 109.179 214.383 109.179C214.383 109.179 207.625 107.913 205.082 109.272C203.023 110.372 204.015 112.172 204.472 112.822C204.579 112.975 204.657 113.066 204.657 113.066C204.657 113.066 204.437 113.159 204.158 113.347C204.158 113.347 204.158 113.347 204.156 113.348C203.64 113.699 202.922 114.376 203.007 115.406C203.091 116.436 203.528 117.042 203.826 117.342C203.984 117.504 204.104 117.576 204.104 117.576C204.104 117.576 204.02 117.668 203.938 117.857C203.784 118.216 203.644 118.925 204.126 120.008C204.568 121 205.29 121.493 205.799 121.728C206.138 121.886 206.379 121.928 206.379 121.928C206.379 121.928 206.355 122.034 206.337 122.21C206.278 122.793 206.287 124.153 207.485 124.93Z" fill="#FF9F87"/>
<path d="M215.696 103.528C215.582 103.339 215.47 103.151 215.359 102.968C214.831 102.858 214.207 102.576 213.739 101.907C213.566 101.661 213.416 101.362 213.299 100.999C213.256 100.863 213.11 100.789 212.976 100.833C212.84 100.875 212.766 101.021 212.809 101.157C213.408 103.013 214.8 103.449 215.696 103.528Z" fill="#FF7E6A"/>
<path d="M208.872 112.61C208.981 112.534 209.015 112.387 208.948 112.27C208.239 111.04 209.245 109.964 209.289 109.918C209.387 109.815 209.383 109.653 209.281 109.554C209.178 109.455 209.016 109.458 208.917 109.561C208.457 110.037 207.777 111.271 208.501 112.528C208.572 112.651 208.729 112.694 208.852 112.622C208.859 112.618 208.866 112.614 208.872 112.61Z" fill="#FF7E6A"/>
<path d="M208.505 116.866C208.622 116.784 208.65 116.623 208.569 116.507C207.892 115.538 208.786 114.492 208.795 114.482C208.889 114.374 208.877 114.212 208.77 114.118C208.662 114.024 208.5 114.035 208.406 114.143C207.999 114.61 207.422 115.766 208.146 116.802C208.228 116.919 208.388 116.947 208.505 116.866Z" fill="#FF7E6A"/>
<path d="M209.214 120.945C209.217 120.943 209.219 120.941 209.222 120.939C209.336 120.853 209.358 120.692 209.272 120.578C208.359 119.373 208.854 118.591 208.876 118.558C208.954 118.44 208.923 118.28 208.806 118.201C208.689 118.123 208.531 118.151 208.451 118.268C208.42 118.312 207.712 119.374 208.861 120.89C208.945 121 209.101 121.024 209.214 120.945Z" fill="#FF7E6A"/>
<path d="M210.541 124.981C210.56 124.968 210.577 124.952 210.593 124.933C210.683 124.823 210.666 124.66 210.556 124.57C209.628 123.812 210.034 122.686 210.038 122.675C210.088 122.541 210.02 122.393 209.887 122.343C209.754 122.293 209.605 122.361 209.555 122.495C209.365 123.005 209.262 124.179 210.231 124.969C210.321 125.044 210.449 125.045 210.541 124.981Z" fill="#FF7E6A"/>
<path d="M204.156 113.348C205.276 113.303 206.48 113.354 206.498 113.355C206.556 113.358 206.611 113.341 206.657 113.309C206.72 113.264 206.764 113.192 206.766 113.109C206.773 112.966 206.662 112.846 206.521 112.84C206.459 112.837 205.488 112.796 204.471 112.822C204.578 112.976 204.656 113.066 204.656 113.066C204.656 113.066 204.435 113.159 204.156 113.348Z" fill="#FF7E6A"/>
<path d="M203.937 117.857C204.899 117.839 205.789 117.877 205.803 117.878C205.862 117.881 205.918 117.863 205.962 117.832C206.026 117.788 206.069 117.715 206.073 117.631C206.078 117.489 205.967 117.369 205.827 117.363C205.766 117.36 204.825 117.319 203.824 117.343C203.983 117.504 204.103 117.576 204.103 117.576C204.103 117.576 204.018 117.668 203.937 117.857Z" fill="#FF7E6A"/>
<path d="M206.335 122.209C207.002 122.156 207.504 122.085 207.547 122.077C207.588 122.072 207.625 122.057 207.656 122.035C207.733 121.98 207.779 121.883 207.763 121.783C207.742 121.642 207.611 121.545 207.469 121.567C207.457 121.569 206.695 121.68 205.797 121.727C206.136 121.885 206.377 121.927 206.377 121.927C206.377 121.927 206.353 122.034 206.335 122.209Z" fill="#FF7E6A"/>
<path d="M237.943 114.417C236.288 114.387 234.194 114.192 232.097 113.937C231.267 113.837 230.436 113.726 229.632 113.614C225.996 113.103 222.913 112.54 222.913 112.54L222.59 124.961L228.365 126.024L232.833 126.847L265.826 132.922L267.997 115.524C267.997 115.524 243.223 114.51 237.943 114.417Z" fill="#FF9F87"/>
<path d="M274.348 115.24V136.101L273.582 135.951L271.635 135.567H271.634L270.255 135.297H270.254L265.921 134.445L264.947 134.253L262.621 133.796L261.242 133.524L257.289 132.747H257.287L256.313 132.556L253.607 132.024H253.606L252.231 131.753L248.653 131.05L247.678 130.858L244.597 130.251L243.219 129.98H243.217L240.018 129.351L239.043 129.159L235.583 128.48H235.582L234.207 128.209L229.934 127.369L230.275 125.003L230.415 124.034L231.189 118.665L231.328 117.697L232.052 112.682L232.101 112.341L232.822 112.391L240.052 112.887L240.973 112.95L241.558 112.991H241.559L243.271 113.107H243.272L248.204 113.447L249.125 113.51L252.754 113.758L254.465 113.876L256.355 114.006L257.275 114.069L263.95 114.526L264.507 114.565L265.425 114.628H265.426L265.659 114.644L272.657 115.124H272.658L273.576 115.187L274.348 115.24Z" fill="#7393FF"/>
<path d="M240.022 129.351L239.046 129.159L238.241 127.259L237.918 126.503L236.139 122.307L235.817 121.551L234.039 117.357V117.356L233.717 116.6L232.055 112.682L232.104 112.341L232.825 112.391L234.465 116.255L234.785 117.012V117.013L236.565 121.207L236.887 121.963L238.666 126.158L238.989 126.915L240.022 129.351Z" fill="#5D74D9"/>
<path d="M248.656 131.05L247.68 130.858L246.962 129.165L246.641 128.407L244.861 124.212L244.54 123.456L242.759 119.261L242.438 118.505L240.659 114.31L240.337 113.554L240.055 112.887L240.975 112.95L241.085 113.209L241.407 113.967L243.187 118.16L243.507 118.917L245.288 123.112L245.609 123.868L247.389 128.063L247.71 128.821L248.656 131.05Z" fill="#5D74D9"/>
<path d="M257.29 132.748L256.316 132.556L255.685 131.07L255.364 130.313L253.585 126.118L253.262 125.361L251.483 121.167L251.162 120.41L249.381 116.216L249.061 115.458L248.207 113.447L249.128 113.51L249.809 115.115L250.129 115.872H250.131L251.91 120.067L252.231 120.823L254.01 125.016L254.333 125.774L256.112 129.969L256.433 130.725L257.29 132.748Z" fill="#5D74D9"/>
<path d="M265.925 134.445L264.951 134.253L264.408 132.975L264.088 132.218L262.308 128.024H262.307L261.986 127.266L260.206 123.073L259.885 122.315L258.105 118.121L257.784 117.365L256.359 114.006L257.279 114.069L258.531 117.021L258.852 117.778L260.631 121.971L260.953 122.729L262.733 126.922L263.055 127.68L264.834 131.875L265.155 132.631L265.925 134.445Z" fill="#5D74D9"/>
<path d="M274.353 135.655V136.101L273.587 135.951L273.132 134.88L272.811 134.123L271.032 129.929H271.03L270.71 129.172L268.93 124.977L268.608 124.221L266.829 120.027L266.508 119.27L264.728 115.075L264.512 114.565L265.43 114.628H265.431L265.475 114.732L267.254 118.926L267.575 119.683L269.355 123.877L269.677 124.634L271.457 128.828L271.777 129.586L273.558 133.781L273.879 134.537L274.353 135.655Z" fill="#5D74D9"/>
<path d="M274.35 117.003V119.106L273.448 116.98H273.447L273.126 116.223L272.66 115.124L273.578 115.187L273.873 115.88L274.193 116.638L274.35 117.003Z" fill="#5D74D9"/>
<path d="M241.562 112.991L243.274 113.107L241.408 113.966L240.66 114.31L234.785 117.012V117.013L234.039 117.356V117.357L231.191 118.665L231.331 117.697L233.717 116.6L234.465 116.255L240.338 113.554L241.086 113.209L241.561 112.991H241.562Z" fill="#5D74D9"/>
<path d="M252.756 113.758L254.467 113.876L250.13 115.872H250.129L249.381 116.215L243.507 118.917L242.759 119.261L236.886 121.963L236.138 122.307L230.277 125.002L230.417 124.034L235.816 121.551L236.564 121.206L242.439 118.505L243.187 118.16L249.06 115.458L249.808 115.114L252.756 113.758Z" fill="#5D74D9"/>
<path d="M265.663 114.644L265.474 114.732L264.727 115.074L258.852 117.778L258.105 118.121L252.232 120.823L251.484 121.166L245.61 123.868L244.863 124.212L238.989 126.915L238.241 127.259L235.588 128.48H235.586L234.211 128.209L237.919 126.503L238.667 126.158L244.542 123.456L245.29 123.112L251.163 120.41L251.911 120.067L257.784 117.365L258.531 117.021L263.954 114.526L264.511 114.565L265.429 114.628H265.43L265.663 114.644Z" fill="#5D74D9"/>
<path d="M274.352 115.661V116.567L274.196 116.638L273.45 116.98H273.449L267.574 119.683L266.828 120.027L260.953 122.729L260.206 123.073L254.333 125.774L253.585 126.118L247.712 128.821L246.964 129.165L244.601 130.251L243.223 129.98L246.642 128.407L247.39 128.063L253.263 125.36L254.011 125.016L259.885 122.315L260.631 121.971L266.507 119.269L267.254 118.926L273.128 116.223L273.875 115.88L274.352 115.661Z" fill="#5D74D9"/>
<path d="M274.352 121.578V122.482L269.676 124.634L268.929 124.977L263.055 127.68L262.308 128.024H262.307L256.433 130.725L255.685 131.07L253.611 132.024H253.61L252.234 131.753L255.365 130.313L256.113 129.969L261.986 127.266L262.732 126.922L268.607 124.221L269.354 123.877L274.352 121.578Z" fill="#5D74D9"/>
<path d="M271.455 128.828L274.352 127.496V128.401L271.776 129.586L271.031 129.929H271.029L265.154 132.631L264.408 132.975L262.624 133.796L261.246 133.524L264.087 132.218L264.834 131.875L270.708 129.172L271.455 128.828Z" fill="#5D74D9"/>
<path d="M273.556 133.781L274.35 133.415V134.319L273.876 134.537L273.129 134.88L271.638 135.567H271.636L270.258 135.297L272.809 134.123L273.556 133.781Z" fill="#5D74D9"/>
<path d="M208.356 184.315C208.815 186.113 214.943 192.905 218.245 194.974C219.84 195.974 223.062 194.23 225.969 192.16C229.409 189.709 230.642 185.174 228.967 181.295C228.784 180.871 228.62 180.474 228.485 180.124C227.995 178.855 228.454 176.387 228.91 174.166C228.954 173.95 228.999 173.735 229.042 173.526C229.414 171.741 229.722 170.222 229.433 169.785C228.762 168.769 227.268 169.549 226.05 171.695C224.832 173.841 224.111 177.425 224.111 177.425C224.111 177.425 220.006 171.91 217.215 171.182C214.957 170.593 214.464 172.588 214.359 173.375C214.333 173.561 214.329 173.68 214.329 173.68C214.329 173.68 214.104 173.599 213.771 173.549C213.771 173.549 213.771 173.549 213.769 173.549C213.152 173.456 212.165 173.466 211.529 174.28C210.892 175.093 210.801 175.836 210.816 176.258C210.823 176.484 210.862 176.618 210.862 176.618C210.862 176.618 210.738 176.629 210.549 176.712C210.193 176.872 209.609 177.297 209.229 178.419C208.88 179.447 209.076 180.3 209.29 180.818C209.431 181.164 209.58 181.359 209.58 181.359C209.58 181.359 209.49 181.42 209.358 181.537C208.92 181.927 208.004 182.931 208.356 184.315Z" fill="#FF9F87"/>
<path d="M228.909 174.165C228.954 173.95 228.999 173.735 229.041 173.526C228.728 173.086 228.46 172.456 228.571 171.647C228.612 171.349 228.704 171.027 228.864 170.681C228.925 170.552 228.868 170.399 228.739 170.34C228.611 170.279 228.457 170.336 228.398 170.465C227.578 172.235 228.304 173.5 228.909 174.165Z" fill="#FF7E6A"/>
<path d="M217.735 176.208C217.866 176.226 217.992 176.141 218.021 176.009C218.336 174.624 219.805 174.517 219.868 174.513C220.009 174.504 220.117 174.382 220.109 174.24C220.1 174.098 219.98 173.99 219.837 173.998C219.176 174.036 217.839 174.48 217.518 175.895C217.486 176.033 217.574 176.171 217.713 176.203C217.72 176.205 217.728 176.206 217.735 176.208Z" fill="#FF7E6A"/>
<path d="M214.578 179.085C214.719 179.104 214.85 179.006 214.869 178.864C215.029 177.694 216.395 177.532 216.409 177.531C216.551 177.515 216.653 177.388 216.638 177.247C216.622 177.105 216.495 177.003 216.353 177.018C215.738 177.085 214.529 177.543 214.358 178.795C214.338 178.936 214.437 179.066 214.578 179.085Z" fill="#FF7E6A"/>
<path d="M212.332 182.562C212.335 182.562 212.339 182.562 212.342 182.563C212.484 182.576 212.61 182.473 212.623 182.331C212.77 180.827 213.665 180.589 213.704 180.58C213.841 180.546 213.927 180.407 213.894 180.27C213.862 180.132 213.727 180.046 213.589 180.077C213.536 180.089 212.296 180.388 212.111 182.282C212.097 182.42 212.195 182.543 212.332 182.562Z" fill="#FF7E6A"/>
<path d="M210.567 186.427C210.59 186.43 210.614 186.43 210.638 186.427C210.779 186.407 210.877 186.277 210.857 186.136C210.69 184.95 211.752 184.398 211.763 184.392C211.89 184.328 211.941 184.173 211.877 184.046C211.813 183.919 211.657 183.868 211.531 183.932C211.045 184.178 210.172 184.969 210.347 186.208C210.363 186.325 210.456 186.412 210.567 186.427Z" fill="#FF7E6A"/>
<path d="M213.77 173.549C214.623 174.276 215.472 175.131 215.484 175.143C215.525 175.185 215.577 175.21 215.632 175.217C215.709 175.228 215.79 175.204 215.849 175.144C215.951 175.044 215.951 174.881 215.851 174.78C215.807 174.736 215.122 174.048 214.357 173.376C214.332 173.562 214.327 173.681 214.327 173.681C214.327 173.681 214.103 173.6 213.77 173.549Z" fill="#FF7E6A"/>
<path d="M210.551 176.712C211.27 177.352 211.899 177.984 211.908 177.994C211.949 178.036 212.002 178.061 212.056 178.068C212.132 178.078 212.213 178.055 212.274 177.995C212.374 177.894 212.374 177.731 212.275 177.631C212.232 177.587 211.569 176.919 210.818 176.258C210.825 176.484 210.864 176.618 210.864 176.618C210.864 176.618 210.739 176.629 210.551 176.712Z" fill="#FF7E6A"/>
<path d="M209.358 181.537C209.885 181.951 210.301 182.239 210.338 182.263C210.371 182.286 210.409 182.3 210.446 182.306C210.54 182.318 210.639 182.278 210.696 182.194C210.776 182.077 210.746 181.916 210.627 181.835C210.615 181.829 209.981 181.393 209.289 180.818C209.431 181.164 209.58 181.359 209.58 181.359C209.58 181.359 209.491 181.42 209.358 181.537Z" fill="#FF7E6A"/>
<path d="M274.346 233.454V240.633H255.312L225.674 202.924L223.898 200.551L222.951 199.287L221.153 196.887L219.906 195.224L219.43 194.588L228.097 185.685C228.097 185.685 228.582 186.33 229.363 187.339C229.71 187.784 230.115 188.303 230.563 188.868C231.092 189.538 231.682 190.272 232.303 191.031C232.679 191.491 233.066 191.959 233.459 192.427C233.603 192.598 233.747 192.77 233.893 192.941C235.261 194.551 236.666 196.115 237.862 197.262C240.751 200.026 261.941 221.106 274.346 233.454Z" fill="#FF9F87"/>
<path d="M225.672 202.924L233.891 192.943C233.35 192.306 232.815 191.66 232.301 191.032L222.949 199.288L225.672 202.924Z" fill="#FF7E6A"/>
<path d="M230.874 188.602L220.561 197.391C220.325 197.592 220.296 197.947 220.498 198.183L222.731 200.804C222.932 201.04 223.287 201.068 223.523 200.867L233.85 192.094C234.087 191.893 234.115 191.537 233.914 191.301L231.667 188.664C231.465 188.429 231.11 188.4 230.874 188.602Z" fill="#7393FF"/>
<path d="M223.014 191.899L225.063 190.152C225.757 189.561 226.714 189.385 227.573 189.69L230.11 190.591C230.969 190.896 231.6 191.637 231.765 192.533L232.253 195.182C232.418 196.078 232.092 196.995 231.398 197.586L229.349 199.333C228.655 199.924 227.698 200.101 226.84 199.795L224.302 198.894C223.443 198.589 222.812 197.848 222.647 196.952L222.16 194.303C221.994 193.406 222.32 192.49 223.014 191.899Z" fill="#7393FF"/>
<path d="M230.712 194.379L230.611 193.832C230.415 192.766 229.665 191.887 228.644 191.524L228.12 191.338C227.099 190.975 225.962 191.184 225.138 191.887L224.714 192.248C223.89 192.95 223.502 194.039 223.699 195.105L223.799 195.652C223.996 196.717 224.745 197.597 225.766 197.96L226.291 198.146C227.312 198.509 228.448 198.3 229.273 197.597L229.696 197.236C230.521 196.533 230.908 195.444 230.712 194.379Z" fill="#5D74D9"/>
</svg>
