<svg width="274" height="274" viewBox="0 0 274 274" fill="none" xmlns="http://www.w3.org/2000/svg">
<g clip-path="url(#clip0_66_302)">
<path d="M45.3486 112.169C48.4032 99.5052 55.6889 88.1496 66.2307 80.1597C73.5915 74.5811 83.3119 69.9992 94.3777 71.7035C119.083 75.5077 145.33 109.488 172.874 104.173C200.419 98.8586 222.574 120.542 218.932 154.776C215.29 189.011 154.791 215.69 101.125 200.873C55.0132 188.141 36.8448 147.426 45.3486 112.169Z" fill="#E6D7D4"/>
<path d="M221.911 87.0277C221.911 87.0277 219.392 78.4203 213.933 79.0505C208.475 79.6802 207.635 82.1993 203.017 80.3103C198.398 78.4208 196.719 72.3326 189.161 73.8023C181.604 75.272 180.764 83.669 172.156 83.0394C163.549 82.4097 160.61 82.1999 157.461 87.0283H221.911V87.0277Z" fill="#E6D7D4"/>
<path d="M118.424 53.4508C118.424 53.4508 114.971 45.8161 105.543 48.0919C96.2216 50.342 92.2058 36.9916 83.9058 37.8503C75.6052 38.709 76.3549 43.9134 65.7648 45.6308C55.1747 47.3483 54.3357 45.6308 49.875 53.4508H118.424Z" fill="#E6D7D4"/>
<path d="M220.374 167.08C220.698 167.08 220.995 166.866 221.086 166.538C223.906 156.392 224.768 146.828 223.647 138.114C222.748 131.122 220.578 124.66 217.199 118.907C211.434 109.094 204.24 104.811 203.937 104.633C203.584 104.427 203.132 104.545 202.925 104.898C202.719 105.249 202.838 105.702 203.19 105.908C203.261 105.95 210.401 110.215 215.965 119.725C221.099 128.498 225.907 143.673 219.661 166.142C219.552 166.535 219.783 166.943 220.175 167.052C220.242 167.071 220.309 167.08 220.374 167.08Z" fill="#E6D7D4"/>
<path d="M51.2155 91.048C51.4446 91.048 51.6704 90.9423 51.815 90.7423C63.1493 75.0832 75.3894 70.1539 83.6615 68.7768C92.5851 67.2906 98.8833 69.4903 98.9458 69.5127C99.3294 69.6503 99.753 69.4503 99.8905 69.0661C100.028 68.682 99.828 68.2589 99.4439 68.1214C99.1737 68.0244 92.7172 65.7704 83.4187 67.3191C77.9716 68.226 72.6823 70.2619 67.6983 73.3696C61.49 77.2406 55.7436 82.7941 50.6171 89.8764C50.3776 90.2069 50.4516 90.6688 50.7826 90.9083C50.9141 91.0026 51.0654 91.048 51.2155 91.048Z" fill="#E6D7D4"/>
<path d="M77.2586 198.971C77.5238 198.971 77.7803 198.828 77.9129 198.577C78.1036 198.216 77.9655 197.769 77.6044 197.579C66.5046 191.721 58.5181 182.234 53.7724 175.307C48.6239 167.792 46.085 161.607 46.0604 161.546C45.9069 161.167 45.4757 160.985 45.0975 161.139C44.7194 161.293 44.5375 161.724 44.6915 162.102C44.7172 162.165 47.3164 168.497 52.5536 176.142C57.393 183.207 65.5484 192.887 76.915 198.886C77.024 198.943 77.1418 198.971 77.2586 198.971Z" fill="#E6D7D4"/>
<path d="M175.995 249.141C175.995 249.141 175.378 256.816 173.118 263.806C170.857 270.795 169.985 272.108 169.985 272.108C169.985 272.108 159.083 244.976 175.995 249.141Z" fill="#FF9F87"/>
<path d="M169.665 273.801L173.877 251.436L134.533 252.77L132.684 273.801H169.665Z" fill="#21191B"/>
<path d="M140.129 273.8C143.282 262.749 145.508 254.967 145.508 254.967L103.243 243.671L98.75 273.8H140.129Z" fill="#21191B"/>
<path d="M105.863 273.8L109.561 248.935C109.625 248.499 109.325 248.093 108.889 248.028C108.452 247.963 108.048 248.264 107.983 248.7L104.25 273.8H105.863Z" fill="#3F3538"/>
<path d="M175.004 252.028C176.956 251.618 178.444 250.027 178.747 248.055C180.815 234.549 179.24 208.552 176.759 191.005C172.066 157.826 165.834 109.722 165.834 109.722C161.701 132.081 159.168 223.811 165.525 250.849C168.842 252.141 172.023 252.654 175.004 252.028Z" fill="#4A3AFF"/>
<path d="M172.719 223.097C172.598 221.821 172.475 220.536 172.354 219.242C172.307 218.786 172.266 218.329 172.223 217.873C172.104 216.654 171.985 215.428 171.87 214.206C171.81 213.577 171.751 212.949 171.692 212.323C171.632 211.664 171.566 211.008 171.51 210.355C171.475 209.991 171.444 209.623 171.41 209.26C171.379 208.926 171.349 208.592 171.322 208.254C171.248 207.46 171.179 206.668 171.117 205.881C171.095 205.675 171.079 205.465 171.061 205.262C171.045 205.052 171.029 204.842 171.01 204.637C170.92 203.549 170.835 202.473 170.757 201.408C170.717 200.879 170.679 200.35 170.645 199.828C170.613 199.403 170.585 198.982 170.56 198.562C170.551 198.431 170.544 198.299 170.535 198.168C170.52 197.906 170.504 197.646 170.488 197.387C170.461 196.962 170.435 196.534 170.413 196.112C170.395 195.748 170.376 195.386 170.361 195.029C170.339 194.598 170.317 194.173 170.298 193.751C170.259 192.863 170.229 191.995 170.207 191.141C170.173 189.783 170.157 188.474 170.166 187.22C170.173 186.535 170.185 185.87 170.207 185.219C170.213 185.014 170.22 184.801 170.225 184.588C170.235 184.141 170.245 183.682 170.247 183.21C170.264 181.5 170.245 179.637 170.201 177.645C170.191 177.169 170.179 176.681 170.163 176.191C170.163 176.167 170.163 176.138 170.159 176.113C170.151 175.669 170.137 175.219 170.122 174.762C170.107 174.272 170.091 173.772 170.075 173.265C170.072 173.246 170.072 173.23 170.072 173.209C170.066 173.021 170.059 172.833 170.053 172.642C170.044 172.423 170.037 172.206 170.029 171.986C170.021 171.777 170.009 171.569 170.002 171.364C169.98 170.754 169.956 170.138 169.934 169.516C169.909 168.906 169.88 168.291 169.856 167.672C169.841 167.265 169.825 166.853 169.807 166.443C169.766 165.361 169.719 164.261 169.671 163.151C169.663 162.926 169.656 162.704 169.647 162.479C169.641 162.295 169.632 162.107 169.625 161.922C169.568 160.572 169.515 159.206 169.463 157.827C169.449 157.393 169.434 156.961 169.419 156.523C169.406 156.123 169.388 155.726 169.375 155.323C169.363 154.889 169.346 154.453 169.334 154.021C169.334 153.985 169.332 153.95 169.332 153.916C169.315 153.385 169.3 152.85 169.288 152.319C169.276 151.99 169.269 151.658 169.259 151.331C169.193 148.808 169.149 146.279 169.137 143.774C169.132 142.896 169.132 142.021 169.141 141.152C169.141 140.989 169.144 140.826 169.144 140.667C169.178 135.6 168.964 129.602 168.959 125.133C168.941 111.132 163.401 101.554 151.201 97.5988L141.91 94.5848C138.653 93.531 135.12 93.7694 132.028 95.2424C126.674 97.7906 118.067 102.288 111.675 107.575C110.878 108.235 110.115 108.907 109.397 109.591C106.272 112.557 104 115.713 103.456 118.874C103.322 119.649 103.169 120.79 103 122.263C102.91 123.061 102.81 123.961 102.71 124.946C102.04 131.445 101.205 141.814 100.449 153.936C100.43 154.264 100.408 154.595 100.389 154.934C100.327 155.922 100.267 156.922 100.205 157.934C100.183 158.331 100.161 158.734 100.137 159.141C100.115 159.57 100.089 160.002 100.062 160.436C100.03 160.989 99.9986 161.543 99.9668 162.102C99.9449 162.534 99.9202 162.965 99.8956 163.402C99.8764 163.803 99.8545 164.199 99.8326 164.599C99.8134 164.95 99.7986 165.303 99.7794 165.654C99.7493 166.232 99.7175 166.813 99.689 167.398C99.6698 167.729 99.6545 168.061 99.6397 168.395C99.5668 169.811 99.4983 171.239 99.4298 172.678C99.33 174.853 99.2325 177.048 99.1421 179.252C99.13 179.599 99.1136 179.947 99.101 180.293C99.0736 181.069 99.0451 181.844 99.0177 182.622C98.9695 183.851 98.9256 185.083 98.8818 186.315C98.7985 188.931 98.7201 191.551 98.6544 194.155C98.6297 195.278 98.6012 196.397 98.5793 197.513C98.5722 197.795 98.5694 198.073 98.5639 198.354C98.5475 199.171 98.5355 199.98 98.5163 200.79C98.5135 200.946 98.5135 201.1 98.5108 201.253C98.5009 201.793 98.4916 202.331 98.4861 202.872C98.479 203.468 98.4697 204.06 98.4642 204.651C98.4571 205.279 98.4544 205.904 98.4478 206.526C98.4379 207.614 98.4324 208.696 98.4324 209.769C98.4297 210.157 98.4297 210.541 98.4297 210.925V211.925C98.4297 212.501 98.4324 213.067 98.4352 213.635C98.4423 215.356 98.4571 217.046 98.4817 218.707C98.4944 219.632 98.5135 220.548 98.5354 221.455C98.542 221.833 98.5519 222.209 98.5601 222.582C98.57 222.97 98.5793 223.362 98.5913 223.742C99.0643 240.431 100.621 252.889 104 254.821C114.942 261.07 163.857 261.812 171.253 257.932C175.414 255.748 174.333 240.299 172.719 223.097ZM104.099 207.467L100.308 192.56C102.293 186.062 104.551 179.764 107.082 173.667L104.099 207.467Z" fill="#4A3AFF"/>
<path d="M117.417 217.132C117.037 217.132 116.71 216.844 116.668 216.458C116.624 216.044 116.924 215.673 117.338 215.629C117.419 215.62 125.631 214.69 134.771 209.645C143.174 205.007 154.115 195.829 158.524 178.444C158.627 178.041 159.036 177.797 159.44 177.899C159.843 178.001 160.088 178.411 159.985 178.814C157.978 186.73 154.495 193.671 149.634 199.447C145.744 204.068 140.971 207.953 135.446 210.994C126.047 216.168 117.843 217.091 117.498 217.128C117.471 217.13 117.443 217.132 117.417 217.132Z" fill="#4A3AFF"/>
<path d="M151.991 110.389C152.065 111.254 151.425 112.016 150.56 112.091C149.694 112.166 148.933 111.525 148.857 110.66C148.783 109.795 149.424 109.033 150.289 108.958C151.154 108.883 151.916 109.524 151.991 110.389Z" fill="#4A3AFF"/>
<path d="M152.608 117.515C152.683 118.381 152.042 119.142 151.177 119.218C150.311 119.293 149.55 118.651 149.475 117.786C149.4 116.921 150.041 116.159 150.906 116.085C151.771 116.01 152.533 116.65 152.608 117.515Z" fill="#4A3AFF"/>
<path d="M153.393 126.601C153.468 127.466 152.827 128.228 151.962 128.303C151.097 128.378 150.335 127.737 150.26 126.872C150.185 126.007 150.826 125.245 151.691 125.17C152.556 125.095 153.319 125.736 153.393 126.601Z" fill="#4A3AFF"/>
<path d="M151.329 106.856C151.32 106.856 151.31 106.857 151.3 106.857C140.006 107.293 131.251 100.877 130.885 100.604C130.608 100.398 130.55 100.007 130.756 99.7294C130.962 99.4521 131.354 99.3946 131.631 99.6006C131.718 99.6647 140.411 106.026 151.252 105.608C151.597 105.595 151.888 105.863 151.901 106.208C151.914 106.544 151.66 106.828 151.329 106.856Z" fill="#4A3AFF"/>
<path d="M114.626 242.673C114.694 242.673 114.762 242.662 114.83 242.639C115.156 242.527 115.33 242.171 115.218 241.844C109.358 224.8 103.382 206.959 100.309 192.56C104.658 177.6 114.431 156.247 123.883 135.597C124.026 135.283 123.889 134.912 123.574 134.768C123.26 134.624 122.889 134.762 122.746 135.076C113.242 155.838 103.416 177.307 99.0638 192.363C99.0348 192.462 99.0315 192.566 99.0529 192.667C102.13 207.162 108.141 225.11 114.035 242.252C114.125 242.51 114.367 242.673 114.626 242.673Z" fill="#4A3AFF"/>
<path d="M119.27 145.042C119.391 145.042 119.514 145.007 119.622 144.933L126.5 140.244C126.785 140.049 126.859 139.661 126.665 139.375C126.471 139.09 126.081 139.016 125.796 139.211L118.917 143.9C118.632 144.095 118.559 144.484 118.753 144.769C118.874 144.946 119.07 145.042 119.27 145.042Z" fill="#4A3AFF"/>
<path d="M132.264 240.099C139.103 240.099 145.587 238.835 150.648 237.445C159.881 234.91 166.511 231.416 166.577 231.381C166.966 231.174 167.114 230.691 166.908 230.301C166.701 229.911 166.217 229.764 165.827 229.97C165.57 230.106 139.826 243.557 118.471 236.41C118.051 236.27 117.6 236.495 117.459 236.913C117.32 237.331 117.545 237.784 117.963 237.924C122.665 239.499 127.55 240.099 132.264 240.099Z" fill="#4A3AFF"/>
<path d="M138.417 247.588C142.129 247.588 145.928 247.204 148.961 246.045C149.373 245.887 149.58 245.426 149.423 245.014C149.265 244.602 148.802 244.396 148.391 244.552C139.981 247.764 124.556 244.55 124.402 244.517C123.971 244.425 123.547 244.701 123.455 245.133C123.364 245.565 123.639 245.989 124.07 246.08C124.498 246.171 131.295 247.588 138.417 247.588Z" fill="#4A3AFF"/>
<path d="M125.851 126.746L125.843 126.761C124.563 129.48 123.263 132.281 121.986 135.051L118.174 143.403C115.653 148.976 113.17 154.562 110.753 160.152C108.341 165.74 105.984 171.343 103.8 176.905C102.715 179.68 101.668 182.453 100.744 185.138C100.286 186.474 99.8603 187.791 99.5124 188.998C99.3452 189.59 99.1836 190.176 99.0822 190.627C99.0509 190.754 99.0312 190.847 99.0115 190.941L98.9803 191.083C98.9775 191.091 98.9775 191.094 98.9775 191.097V191.088C98.9775 191.083 98.9748 191.077 98.972 191.071C98.9693 191.068 98.9665 191.062 98.9633 191.062V191.091C98.9578 191.13 98.949 191.168 98.938 191.207C98.938 191.365 98.9123 191.482 98.9183 191.708C98.9211 191.813 98.9128 191.904 98.9183 192.023L98.9298 192.382C98.9353 192.618 98.9665 192.909 98.9781 193.173L99.063 194.042C99.1989 195.24 99.4115 196.554 99.6636 197.897C100.171 200.593 100.847 203.417 101.584 206.252C103.077 211.933 104.844 217.699 106.713 223.449C108.588 229.204 110.582 234.959 112.646 240.695C113.677 243.564 114.731 246.43 115.798 249.288L117.413 253.567L119.041 257.798L119.098 257.94C120.73 262.197 118.756 267.031 114.541 268.903C110.188 270.835 105.09 268.872 103.159 264.518L101.241 260.199L99.3693 255.903C98.1319 253.037 96.911 250.162 95.7076 247.279C93.303 241.51 90.9608 235.706 88.7118 229.824C86.4689 223.936 84.3108 217.994 82.3567 211.822C81.5977 209.407 80.8667 206.965 80.1986 204.424C80.009 203.708 79.8276 202.986 79.649 202.252C79.2468 200.578 78.873 198.859 78.5645 197.006L78.3464 195.579C78.2867 195.075 78.216 194.602 78.1705 194.066L78.0971 193.273C78.0746 193.007 78.0603 192.71 78.0461 192.43C78.0066 191.886 78.0066 191.232 78.0039 190.617L78.0434 189.577L78.0576 189.32L78.0834 189.022L78.1425 188.43L78.1765 188.133L78.2132 187.864L78.2784 187.433C78.3206 187.144 78.3661 186.858 78.4144 186.609C78.6012 185.541 78.8078 184.632 79.0204 183.726C79.4451 181.944 79.9016 180.305 80.3713 178.698C80.3767 178.675 80.3855 178.65 80.3937 178.628C81.3253 175.453 82.3227 172.425 83.342 169.426C85.4008 163.393 87.5731 157.51 89.7908 151.656C92.0113 145.807 94.2855 140.005 96.5964 134.218L100.089 125.554C101.267 122.663 102.44 119.808 103.66 116.885C103.725 116.732 103.81 116.536 103.881 116.386C106.742 110.317 113.978 107.72 120.048 110.578C126.112 113.44 128.712 120.679 125.851 126.746Z" fill="#4A3AFF"/>
<path d="M127.31 119.733C127.27 119.748 127.23 119.759 127.19 119.768C126.834 119.836 126.471 119.64 126.341 119.29C124.444 114.175 121.593 110.918 117.868 109.607C114.876 108.554 111.788 108.924 109.398 109.588C110.116 108.905 110.879 108.233 111.676 107.573C113.747 107.304 116.065 107.374 118.368 108.186C122.536 109.651 125.694 113.212 127.754 118.765C127.899 119.155 127.7 119.589 127.31 119.733Z" fill="#4A3AFF"/>
<path d="M80.1947 204.425C80.0051 203.709 79.8238 202.987 79.6451 202.253C79.2429 200.579 78.8691 198.86 78.5606 197.008L78.3425 195.58C78.2828 195.076 78.2121 194.603 78.1666 194.068L78.0932 193.275C78.0707 193.008 78.0565 192.711 78.0422 192.431C78.0027 191.887 78.0027 191.233 78 190.618L78.0395 189.578L78.0537 189.321L78.0795 189.023L78.1386 188.432L78.1726 188.134L78.2093 187.865L78.2746 187.434C78.3167 187.145 78.3622 186.859 78.4105 186.61C78.5973 185.542 78.8039 184.633 79.0165 183.727C79.4412 181.945 79.8977 180.306 80.3674 178.7C80.3728 178.677 80.3816 178.651 80.3898 178.629C83.035 184.246 89.0707 199.359 80.1947 204.425Z" fill="#4A3AFF"/>
<path d="M117.275 273.801L122.586 270.932C122.612 270.917 122.638 270.904 122.663 270.89C124.318 269.972 124.74 267.779 123.574 266.289C121.639 263.818 118.321 259.637 118.321 259.637C112.74 258.934 108.639 261.186 105.262 264.886C105.262 264.886 105.273 269.826 106.722 273.801H117.275Z" fill="#FF9F87"/>
<path d="M120.142 273.8C125.155 270.317 127.233 266.365 127.37 266.096C127.589 265.668 127.419 265.145 126.992 264.926C126.564 264.706 126.04 264.876 125.82 265.303C125.783 265.373 123.189 270.264 116.762 273.8H120.142Z" fill="#3F3538"/>
<path d="M99.0816 194.931C99.4455 194.931 99.7743 194.681 99.8598 194.311C99.9584 193.881 99.6905 193.453 99.2603 193.353L89.142 191.024C88.7129 190.927 88.2839 191.194 88.1847 191.623C88.0855 192.054 88.354 192.482 88.7842 192.581L98.9024 194.911C98.9622 194.925 99.0225 194.931 99.0816 194.931Z" fill="#4A3AFF"/>
<path d="M89.4984 196.638C89.5982 196.638 89.6996 196.62 89.7976 196.58L95.961 194.085C96.3704 193.92 96.5671 193.454 96.4021 193.045C96.2366 192.636 95.7698 192.439 95.362 192.605L89.1987 195.099C88.7893 195.265 88.5926 195.73 88.7575 196.139C88.8836 196.45 89.1828 196.638 89.4984 196.638Z" fill="#4A3AFF"/>
<path d="M129.349 59.589C129.349 59.589 125.491 54.6465 127.011 50.0795C128.53 45.513 134.328 45.1475 134.328 45.1475C134.328 45.1475 133.279 40.124 136.841 38.48C140.403 36.836 153.659 39.7097 160.93 38.092C167.804 36.562 169.447 33 169.447 33C169.447 33 174.736 49.3479 163.871 51.1295C153.007 52.911 133.457 51.9274 129.349 59.589Z" fill="#21191B"/>
<path d="M129.791 60.475C129.563 60.3106 124.238 56.3891 125.432 51.4725C126.508 47.0402 130.412 46.147 133.548 45.4297C133.94 45.3398 134.31 45.2554 134.669 45.1655L134.802 45.6971C134.437 45.7881 134.065 45.8735 133.67 45.9634C130.525 46.6829 126.961 47.4978 125.965 51.6012C124.858 56.1595 130.06 59.9928 130.113 60.0311L129.791 60.475Z" fill="#21191B"/>
<path d="M164.482 51.3711C163.783 51.3711 163.306 51.2933 163.25 51.2834L163.343 50.7431C163.38 50.7491 167.159 51.3585 169.307 48.9194C171.187 46.7849 171.323 43.007 169.709 37.6919L170.234 37.5325C171.907 43.0448 171.732 46.9986 169.716 49.2849C168.149 51.0615 165.875 51.3711 164.482 51.3711Z" fill="#21191B"/>
<path d="M151.728 101.295C151.728 101.295 151.71 101.302 151.67 101.313C151.323 101.393 149.394 101.837 146.698 102.032H146.669C143.081 102.119 137.961 101.436 132.566 98.0685L132.769 87.7847L132.986 76.7463L135.518 77.5196L151.283 82.3326L151.583 95.1745L151.728 101.295Z" fill="#FF9F87"/>
<path d="M138.438 79.7756C138.438 79.7756 139.512 94.3782 151.61 96.2447L151.283 82.3321L138.438 79.7756Z" fill="#21191B"/>
<path d="M160.675 60.8368C160.675 60.8368 165.388 57.9292 167.647 63.6782C169.906 69.4278 164.688 76.759 159.325 75.5649C159.325 75.5649 158.551 63.7928 160.675 60.8368Z" fill="#FF7E6A"/>
<path d="M162.031 89.2758C162.031 89.2758 167.405 81.503 166.134 68.4524C166.134 68.4524 164.783 78.6315 163.222 80.3166L162.031 89.2758Z" fill="#21191B"/>
<path d="M166.132 69.669C166.029 71.5678 165.849 73.4913 165.567 75.3857C165.385 76.6214 165.158 77.8451 164.879 79.0409C163.89 83.3016 162.258 87.2143 159.672 90.1061C154.629 95.7423 147.467 93.2861 141.351 87.7815C137.378 84.2085 133.845 79.3395 131.627 74.5692V74.5648C131.305 73.8699 131.006 73.1827 130.742 72.495C129.772 69.9824 129.216 67.5564 129.193 65.4192C129.185 64.6591 129.185 63.9303 129.195 63.2289C129.205 62.4343 129.228 61.6797 129.262 60.9574C129.286 60.4878 129.316 60.0285 129.35 59.589C129.477 57.9012 129.679 56.426 129.966 55.1201C131.124 49.8867 133.684 47.3796 138.311 45.2863C141.68 43.7557 147.363 43.2433 152.651 43.8368C157.723 44.404 161.997 47.481 164.238 51.7927C164.44 52.168 164.618 52.55 164.782 52.9435C164.785 52.9462 164.785 52.9533 164.789 52.9572C165.38 54.3655 165.755 55.8824 165.893 57.4727C166.184 60.9475 166.369 65.24 166.132 69.669Z" fill="#FF9F87"/>
<path d="M166.133 69.669C166.03 71.5678 165.851 73.4913 165.569 75.3857C165.557 75.3874 165.544 75.3874 165.531 75.3874C163.935 75.3874 162.641 74.093 162.641 72.4967C162.641 70.8992 163.935 69.606 165.531 69.606C165.737 69.606 165.938 69.6284 166.133 69.669Z" fill="#FF7E6A"/>
<path d="M149.543 72.045C149.543 73.6419 148.249 74.9357 146.652 74.9357C145.056 74.9357 143.762 73.6413 143.762 72.045C143.762 70.4487 145.056 69.1543 146.652 69.1543C148.249 69.1543 149.543 70.4481 149.543 72.045Z" fill="#FF7E6A"/>
<path d="M145.443 63.9164C145.443 63.9164 150.387 62.525 154.348 63.3229C154.348 63.3229 154.884 59.7724 150.387 60.0952C147.124 60.3292 144.94 60.8109 145.443 63.9164Z" fill="#21191B"/>
<path d="M167.133 64.3238C167.133 64.3238 162.555 62.8392 158.817 63.4404C158.817 63.4404 158.445 60.096 162.644 60.5639C165.692 60.9032 167.718 61.4342 167.133 64.3238Z" fill="#21191B"/>
<path d="M130.742 72.4966C131.008 73.1821 131.304 73.8715 131.626 74.5642V74.568C134.046 76.0663 136.369 76.2011 137.133 76.2011C137.275 76.2011 137.365 76.1972 137.391 76.1934C137.699 76.1748 137.934 75.9084 137.916 75.5977C137.897 75.2903 137.623 75.0546 137.32 75.0733C137.301 75.0733 137.23 75.0771 137.121 75.0771C136.327 75.0777 133.391 74.905 130.742 72.4966Z" fill="#FF7E6A"/>
<path d="M161.847 89.6199C159.85 93.3003 157.555 94.3437 150.56 93.8039C146.937 93.5255 143.089 91.0398 140.822 88.0099C139.091 85.7017 138.499 82.9803 138.311 81.2355C137.878 77.2663 135.979 64.8558 135.915 64.4201C133.876 64.3061 131.46 63.6688 129.195 63.2288C129.199 62.8397 129.209 62.4605 129.219 62.0884C129.232 61.7026 129.246 61.3267 129.262 60.9579C129.286 60.4882 129.316 60.0284 129.349 59.589C129.476 57.9017 129.678 56.4248 129.966 55.12C131.124 49.8861 133.683 47.3801 138.31 45.2862C141.679 43.7561 147.362 43.2427 152.65 43.8367C157.605 44.3902 161.802 47.3395 164.08 51.4999C164.134 51.5975 164.188 51.6945 164.238 51.792C164.171 51.7115 164.097 51.6309 164.017 51.5536C161.159 48.7824 151.382 49.8494 147.98 50.3858C146.638 50.6007 145.695 51.7547 145.695 53.053C145.695 53.2442 145.715 53.4388 145.759 53.6333C145.933 54.4284 145.879 55.2608 145.584 56.0187C145.279 56.8073 144.759 57.6523 143.923 57.7767C142.611 57.9745 141.715 58.4409 141.105 59.0284C139.384 60.6658 139.944 63.2288 139.944 63.2288C139.944 63.2288 143.43 76.3139 145.614 77.1354C147.799 77.9541 149.798 76.7594 158.213 77.508C158.213 77.508 162.846 78.1223 164.53 78.7525C164.674 78.8062 164.788 78.9038 164.879 79.0413C165.813 80.4875 163.675 86.2546 161.847 89.6199Z" fill="#21191B"/>
<path d="M155.272 87.2157C154.228 87.0223 153.528 86.6162 153.473 86.5828C153.219 86.4315 153.135 86.1027 153.286 85.8479C153.437 85.5937 153.766 85.5093 154.02 85.66C154.115 85.7159 156.214 86.911 158.463 85.7148C158.723 85.5761 159.049 85.6753 159.188 85.9367C159.327 86.1981 159.228 86.5225 158.966 86.6617C157.595 87.3905 156.274 87.4021 155.272 87.2157Z" fill="#3F3538"/>
<path d="M151.355 80.083C151.355 80.083 157.572 81.424 162.642 80.4743C162.642 80.4743 160.38 84.9049 155.684 84.1831C152.019 83.6203 151.355 80.083 151.355 80.083Z" fill="white"/>
<path d="M164.082 51.4994C164.062 51.5197 164.038 51.5362 164.018 51.5531C161.159 48.7819 151.383 49.8489 147.981 50.3854C146.639 50.6002 145.696 51.7543 145.696 53.0525C145.696 53.2437 145.716 53.4383 145.76 53.6328C145.934 54.428 145.88 55.2604 145.585 56.0182C145.28 56.8068 144.76 57.6518 143.924 57.7762C142.612 57.9741 141.716 58.4404 141.106 59.0279C135.54 59.7057 129.709 61.8999 129.219 62.0879C129.232 61.7021 129.246 61.3262 129.262 60.9574C129.286 60.4877 129.316 60.028 129.349 59.5885C129.476 57.9012 129.678 56.4243 129.966 55.1195C131.124 49.8856 133.683 47.3796 138.31 45.2857C141.679 43.7557 147.362 43.2422 152.65 43.8362C157.606 44.3902 161.803 47.3396 164.082 51.4994Z" fill="#21191B"/>
<path d="M148.957 50.2429C148.957 50.2429 152.999 49.4401 155.491 51.4496C157.983 53.4591 158.568 53.8778 160.038 53.8131C161.589 53.7446 161.002 50.8577 163.02 50.8616C165.038 50.8654 152.946 46.2962 148.957 50.2429Z" fill="#21191B"/>
<path d="M134.156 60.6165C134.156 60.6165 128.976 58.0951 127.703 64.1401C126.43 70.1851 132.314 75.4952 137.581 75.1253C137.581 75.1253 136.742 63.1784 134.156 60.6165Z" fill="#FF9F87"/>
<path d="M134.803 70.7408C134.543 70.7348 134.314 70.5463 134.267 70.2805C133.607 66.5673 130.779 64.6224 130.75 64.6032C130.495 64.4312 130.427 64.0848 130.599 63.8289C130.77 63.5735 131.116 63.505 131.371 63.6755C131.503 63.7637 134.619 65.8888 135.365 70.0843C135.419 70.3879 135.217 70.6778 134.914 70.7315C134.877 70.7392 134.84 70.7419 134.803 70.7408Z" fill="#FF7E6A"/>
<path d="M130.51 68.0254C130.314 68.0205 130.126 67.9125 130.029 67.7262C129.886 67.4533 129.991 67.1163 130.264 66.9732C130.34 66.9332 132.147 65.9989 133.616 66.2696C133.919 66.3255 134.119 66.6165 134.063 66.9195C134.007 67.2226 133.716 67.4231 133.413 67.3672C132.51 67.2006 131.207 67.7399 130.781 67.9624C130.695 68.0073 130.602 68.0276 130.51 68.0254Z" fill="#FF7E6A"/>
<path d="M158.589 76.7365C157.88 76.7365 157.105 76.5743 156.691 76.4729C156.367 76.394 156.169 76.0674 156.248 75.743C156.327 75.4191 156.653 75.2208 156.978 75.2997C157.757 75.4893 158.637 75.5748 158.984 75.5063C158.942 74.5138 158.271 69.9819 157.618 65.953C157.565 65.6231 157.788 65.3135 158.117 65.2603C158.447 65.205 158.757 65.4302 158.81 65.7595C159.158 67.9066 160.285 74.9758 160.182 75.8027C160.149 76.0724 160.002 76.3091 159.77 76.4691C159.482 76.668 159.05 76.7365 158.589 76.7365Z" fill="#FF7E6A"/>
<path d="M150.918 66.9931C150.937 68.0419 150.482 68.9001 149.903 68.9105C149.324 68.9209 148.839 68.0792 148.821 67.0303C148.802 65.982 149.257 65.1233 149.836 65.1129C150.416 65.103 150.9 65.9447 150.918 66.9931Z" fill="#21191B"/>
<path d="M163.688 66.9931C163.706 68.0419 163.251 68.9001 162.673 68.9105C162.093 68.9209 161.609 68.0792 161.59 67.0303C161.572 65.982 162.027 65.1233 162.606 65.1129C163.185 65.103 163.67 65.9447 163.688 66.9931Z" fill="#21191B"/>
<path d="M158.859 67.8977C158.859 64.5127 161.357 61.759 164.429 61.759C167.5 61.759 169.997 64.5127 169.997 67.8977C169.997 71.2827 167.5 74.0364 164.429 74.0364C161.358 74.0364 158.859 71.2827 158.859 67.8977ZM159.575 67.8977C159.575 70.8887 161.752 73.3213 164.429 73.3213C167.105 73.3213 169.283 70.8887 169.283 67.8977C169.283 64.9073 167.105 62.4742 164.429 62.4742C161.752 62.4742 159.575 64.9073 159.575 67.8977Z" fill="white"/>
<path d="M145.066 67.8977C145.066 64.5127 147.565 61.759 150.636 61.759C153.707 61.759 156.205 64.5127 156.205 67.8977C156.205 71.2827 153.707 74.0364 150.636 74.0364C147.564 74.0364 145.066 71.2827 145.066 67.8977ZM145.781 67.8977C145.781 70.8887 147.959 73.3213 150.635 73.3213C153.312 73.3213 155.489 70.8887 155.489 67.8977C155.489 64.9073 153.312 62.4742 150.635 62.4742C147.959 62.4742 145.781 64.9073 145.781 67.8977Z" fill="white"/>
<path d="M139.859 62.0149C142.802 62.6506 144.89 64.1203 145.797 64.8634C146.095 65.1056 146.265 65.2706 146.297 65.3018L145.797 65.8131C145.79 65.8065 145.686 65.7062 145.494 65.5446C144.765 64.9335 142.753 63.4359 139.879 62.7635L139.859 62.0149Z" fill="white"/>
<path d="M155.366 65.2432C157.347 63.5346 159.709 65.0668 159.809 65.1325L160.206 64.538C160.177 64.5188 157.295 62.6347 154.898 64.7023L155.366 65.2432Z" fill="white"/>
<path d="M158.793 167.989C158.61 167.989 158.449 167.869 158.398 167.692C158.358 167.554 154.329 153.621 148.393 138.07C140.551 117.527 132.961 103.502 126.442 97.5099C126.274 97.3565 126.263 97.0962 126.417 96.9291C126.57 96.7619 126.831 96.751 126.998 96.9044C130.697 100.304 134.692 106.137 138.872 114.241C142.205 120.704 145.668 128.624 149.163 137.781C153.948 150.319 157.496 161.805 158.721 165.889C162.521 146.769 160.869 129.416 158.77 118.099C156.431 105.488 153.049 97.4475 153.015 97.3675C152.926 97.1587 153.024 96.917 153.233 96.8282C153.441 96.7395 153.683 96.837 153.772 97.0458C153.806 97.1263 157.218 105.232 159.574 117.924C160.957 125.376 161.714 132.932 161.821 140.384C161.956 149.701 161.072 158.879 159.195 167.664C159.155 167.848 158.995 167.982 158.807 167.989C158.803 167.989 158.798 167.989 158.793 167.989Z" fill="white"/>
<path d="M149.089 192.289H166.74C167.205 192.289 167.583 191.911 167.583 191.446V166.136C167.583 165.671 167.205 165.293 166.74 165.293H149.089C148.624 165.293 148.246 165.67 148.246 166.136V191.446C148.246 191.911 148.624 192.289 149.089 192.289Z" fill="#F5F2EE"/>
<path d="M152.377 170.128H163.126C163.256 170.128 163.362 170.022 163.362 169.892C163.362 169.762 163.256 169.656 163.126 169.656H152.377C152.246 169.656 152.141 169.762 152.141 169.892C152.141 170.022 152.246 170.128 152.377 170.128Z" fill="#E6D7D4"/>
<path d="M152.377 173.903H163.126C163.256 173.903 163.362 173.798 163.362 173.667C163.362 173.537 163.256 173.431 163.126 173.431H152.377C152.246 173.431 152.141 173.537 152.141 173.667C152.141 173.798 152.246 173.903 152.377 173.903Z" fill="#E6D7D4"/>
<path d="M152.377 177.626H163.126C163.256 177.626 163.362 177.52 163.362 177.39C163.362 177.259 163.256 177.153 163.126 177.153H152.377C152.246 177.153 152.141 177.259 152.141 177.39C152.141 177.52 152.246 177.626 152.377 177.626Z" fill="#E6D7D4"/>
<path d="M166.009 190.921H149.819C149.705 190.921 149.613 190.829 149.613 190.715V166.866C149.613 166.752 149.705 166.66 149.819 166.66H166.009C166.123 166.66 166.215 166.752 166.215 166.866V190.715C166.215 190.829 166.123 190.921 166.009 190.921ZM150.024 190.51H165.804V167.072H150.024V190.51Z" fill="#E6D7D4"/>
</g>
<defs>
<clipPath id="clip0_66_302">
<rect width="274" height="274" fill="white"/>
</clipPath>
</defs>
</svg>
