<svg width="321" height="242" viewBox="0 0 321 242" fill="none" xmlns="http://www.w3.org/2000/svg">
<path d="M122.858 215.339C116.604 213.003 111.194 209.711 106.629 205.462C102.062 201.214 98.4861 195.874 95.899 189.444C93.3119 183.016 92.0195 175.908 92.0195 168.122C92.0195 161.626 93.1096 155.553 95.2922 149.902C97.4739 144.252 100.421 139.402 104.132 135.354C107.844 131.305 112.129 127.811 116.987 124.876C121.845 121.94 126.985 119.76 132.406 118.336C137.827 116.912 143.281 116.199 148.77 116.199C153.493 116.199 158.025 116.734 162.366 117.801C166.707 118.869 170.778 120.538 174.581 122.806C178.381 125.076 181.7 127.856 184.534 131.149C187.368 134.442 189.594 138.435 191.214 143.128C192.834 147.822 193.644 152.972 193.644 158.578C193.644 163.828 192.676 168.89 190.742 173.761C188.807 178.633 186.332 182.749 183.319 186.109C180.305 189.468 176.964 192.147 173.298 194.15C169.632 196.152 166.067 197.153 162.603 197.153C159.948 197.153 157.553 196.375 155.417 194.818C153.28 193.261 152.144 191.058 152.009 188.211C147.6 194.35 141.639 197.42 134.127 197.42C128.009 197.42 123.128 195.351 119.484 191.214C115.841 187.076 114.019 181.981 114.019 175.931C114.019 171.438 114.817 166.943 116.414 162.45C118.01 157.956 120.182 153.886 122.926 150.237C125.669 146.589 129.122 143.62 133.284 141.328C137.444 139.037 141.864 137.891 146.544 137.891C149.917 137.891 153.009 138.637 155.822 140.127C158.633 141.618 160.781 143.786 162.266 146.633L162.874 144.698C163.683 142.207 165.438 140.96 168.137 140.96C169.396 140.96 170.475 141.317 171.376 142.029C172.275 142.741 172.725 143.741 172.725 145.032C172.725 145.566 172.634 146.1 172.455 146.634L162.874 178.134C161.794 181.738 161.254 184.207 161.254 185.542C161.254 187.811 162.423 188.946 164.763 188.946C167.821 188.946 170.824 187.556 173.771 184.775C176.716 181.995 179.112 178.301 180.957 173.697C182.801 169.091 183.725 164.32 183.725 159.382C183.725 154.755 183.094 150.505 181.835 146.634C180.575 142.764 178.865 139.483 176.707 136.791C174.547 134.099 171.983 131.83 169.014 129.984C166.044 128.137 162.874 126.781 159.5 125.912C156.125 125.044 152.593 124.611 148.905 124.611C144.406 124.611 139.941 125.235 135.51 126.48C131.079 127.726 126.861 129.606 122.858 132.119C118.854 134.633 115.311 137.614 112.231 141.062C109.149 144.51 106.697 148.636 104.875 153.441C103.053 158.247 102.142 163.386 102.142 168.858C102.142 175.623 103.267 181.706 105.516 187.112C107.766 192.518 110.836 196.901 114.727 200.259C118.618 203.619 123.071 206.189 128.088 207.967C133.104 209.748 138.469 210.638 144.183 210.638C150.121 210.638 155.879 209.769 161.458 208.035C161.953 207.858 162.537 207.768 163.212 207.768C164.471 207.768 165.482 208.18 166.248 209.004C167.013 209.827 167.395 210.771 167.395 211.839C167.395 213.798 166.473 215.043 164.628 215.577C157.206 217.756 150.03 218.847 143.103 218.847C135.858 218.843 129.11 217.674 122.858 215.339ZM147.252 185.04C150.288 182.793 152.346 180.001 153.426 176.664L159.634 155.174L159.229 154.307C158.959 153.773 158.487 153.117 157.812 152.337C157.137 151.56 156.338 150.78 155.417 150.002C154.494 149.224 153.257 148.556 151.705 148C150.154 147.445 148.5 147.166 146.745 147.166C144.765 147.166 142.842 147.566 140.976 148.367C139.108 149.167 137.433 150.247 135.948 151.604C134.464 152.962 133.102 154.54 131.866 156.342C130.628 158.144 129.594 160.046 128.761 162.048C127.928 164.05 127.288 166.11 126.838 168.222C126.388 170.336 126.163 172.371 126.163 174.329C126.163 175.753 126.241 177.066 126.4 178.267C126.557 179.468 126.815 180.603 127.176 181.671C127.535 182.739 127.995 183.685 128.559 184.507C129.121 185.331 129.796 186.031 130.583 186.609C131.37 187.188 132.304 187.633 133.384 187.944C134.464 188.256 135.679 188.411 137.028 188.411C140.807 188.41 144.214 187.287 147.252 185.04Z" fill="#F0F0F0"/>
</svg>
